<ttFont>
          <CharString index="0">
            -85 callgsubr
            -165 -104 callgsubr
            -209 602 rmoveto
            -40 callgsubr
            return
          </CharString>
          <CharString index="1">
            -38 callgsubr
            -107 callsubr
            return
          </CharString>
          <CharString index="2">
            22 callsubr
            69 vstem
            542 143 rmoveto
            -103 callgsubr
            -467 vlineto
            -86 callsubr
            504 43 callgsubr
            return
          </CharString>
          <CharString index="3">
            -89 callsubr
            -204 136 -163 219 -41 callsubr
            vhcurveto
            -95 callsubr
            return
          </CharString>
          <CharString index="4">
            -20 hstem
            -106 callsubr
            return
          </CharString>
          <CharString index="5">
            rmoveto
            118 -77 20 22 -80 91 rlineto
            30 -27 -11 8 -20 hhcurveto
            -20 -11 -8 -30 -27 hvcurveto
            -80 -91 20 -22 rlineto
            endchar
          </CharString>
          <CharString index="6">
            hstem
            -11 callgsubr
            vstem
            262 30 callgsubr
            -37 callgsubr
            -77 callsubr
            hvcurveto
            -86 callgsubr
            return
          </CharString>
          <CharString index="7">
            3 callgsubr
            hintmask 01011111
            -100 callgsubr
            hintmask 00111111
            -70 callsubr
            hintmask 01011111
            -87 callgsubr
            hintmask 10011111
            -75 callsubr
            return
          </CharString>
          <CharString index="8">
            194 8 21 90 vhcurveto
            -96 callsubr
            -90 -43 callgsubr
            return
          </CharString>
          <CharString index="9">
            rmoveto
            -83 -61 -73 -128 -130 61 -70 83 82 60 70 130 128 -60 73 -82 hvcurveto
            -376 vmoveto
            -48 -38 69 106 105 38 73 48 48 36 -73 -105 -106 -36 -69 -48 hvcurveto
            return
          </CharString>
          <CharString index="10">
            300 rmoveto
            87 178 rlineto
            198 97 10 12 90 -6 callgsubr
            -224 -63 callgsubr
            46 21 -3 -31 -31 -22 -48 -47 -97 hvcurveto
            -77 -155 -90 155 rlineto
            -62 107 -32 51 -17 callgsubr
            -249 -63 callgsubr
            72 15 -15 -195 115 hvcurveto
            112 -189 rlineto
            -63 -67 callgsubr
            return
          </CharString>
          <CharString index="11">
            -54 callgsubr
            91 7 -81 callgsubr
            -7 -20 -91 -92 callgsubr
            270 -91 callgsubr
            return
          </CharString>
          <CharString index="12">
            -87 -7 -46 callgsubr
            -69 callsubr
            175 175 93 -142 -194 vhcurveto
            return
          </CharString>
          <CharString index="13">
            rmoveto
            -15 -11 -5 -15 -17 54 callsubr
            -122 15 -23 162 83 rlineto
            30 16 5 16 15 vvcurveto
            19 -14 16 -21 vhcurveto
            endchar
          </CharString>
          <CharString index="14">
            -19 callsubr
            -70 -96 callgsubr
            hvcurveto
            return
          </CharString>
          <CharString index="15">
            rmoveto
            -35 -21 -45 -21 -63 -28 8 -21 rcurveline
            14 33 26 11 14 hhcurveto
            11 7 -9 -27 hvcurveto
            -157 vlineto
            -111 -4 -12 -66 vhcurveto
            -1 -15 rlineto
            200 51 callsubr
            -65 -5 12 111 hvcurveto
            253 vlineto
            return
          </CharString>
          <CharString index="16">
            -60 callsubr
            -36 vlineto
            -212 -1 -80 -65 -26 callgsubr
            98 38 73 66 23 vhcurveto
            return
          </CharString>
          <CharString index="17">
            7 callgsubr
            244 -91 callgsubr
            -79 -5 return
          </CharString>
          <CharString index="18">
            hstem
            35 87 528 87 vstem
            -67 callsubr
            -47 callsubr
            return
          </CharString>
          <CharString index="19">
            -28 -24 -23 -31 -29 24 -23 28 30 23 23 29 31 -23 23 -30 hvcurveto
            return
          </CharString>
          <CharString index="20">
            -33 -13 -20 -12 -24 -48 -35 42 -55 hhcurveto
            -37 -29 -29 -74 -16 hvcurveto
            24 -9 rlineto
            return
          </CharString>
          <CharString index="21">
            19 callgsubr
            8 -81 callgsubr
            -8 -71 callgsubr
            return
          </CharString>
          <CharString index="22">
            -84 -87 -11 -73 callgsubr
            return
          </CharString>
          <CharString index="23">
            rmoveto
            -87 callsubr
            -61 callsubr
            return
          </CharString>
          <CharString index="24">
            -35 callsubr
            189 -103 callsubr
            return
          </CharString>
          <CharString index="25">
            -84 callsubr
            37 29 29 74 16 hvcurveto
            endchar
          </CharString>
          <CharString index="26">
            -34 callgsubr
            169 -20 -105 callsubr
            return
          </CharString>
          <CharString index="27">
            6 callgsubr
            189 -20 -105 callgsubr
            return
          </CharString>
          <CharString index="28">
            hstem
            97 -210 rmoveto
            70 38 55 108 44 hvcurveto
            -149 376 rlineto
            122 -48 -33 10 -42 hhcurveto
            -73 callsubr
            248 hlineto
            -2 -12 rlineto
            -48 -14 -16 -29 -36 19 -58 28 -70 hvcurveto
            77 -194 78 240 rlineto
            18 56 5 32 21 vvcurveto
            32 -17 22 -53 vhcurveto
            -73 callsubr
            188 hlineto
            -2 -12 rlineto
            -56 -4 -11 -179 -59 hvcurveto
            -90 -274 rlineto
            -180 -59 -82 -101 -85 hhcurveto
            -36 -31 15 29 29 23 14 16 hvcurveto
            29 9 -13 24 hhcurveto
            return
          </CharString>
          <CharString index="29">
            -88 callsubr
            endchar
          </CharString>
          <CharString index="30">
            -62 callgsubr
            135 135 -87 112 -143 return
          </CharString>
          <CharString index="31">
            -9 callsubr
            160 -20 -104 callsubr
            return
          </CharString>
          <CharString index="32">
            -213 -201 rmoveto
            -58 callsubr
            -30 callsubr
            return
          </CharString>
          <CharString index="33">
            vhcurveto
            84 67 51 0 hvcurveto
            -5 10 rlineto
            return
          </CharString>
          <CharString index="34">
            -2 12 rlineto
            return
          </CharString>
          <CharString index="35">
            -194 -7 -59 callsubr
            -43 callgsubr
            return
          </CharString>
          <CharString index="36">
            -48 callgsubr
            -82 -75 67 150 hvcurveto
            17 vlineto
            return
          </CharString>
          <CharString index="37">
            -55 4 -54 -51 callgsubr
            return
          </CharString>
          <CharString index="38">
            -175 -93 142 195 194 85 142 return
          </CharString>
          <CharString index="39">
            -83 rmoveto
            75 -9 20 -35 -34 vvcurveto
            -32 -23 -31 -46 -18 -24 8 17 -17 vhcurveto
            -18 -20 rlineto
            -25 21 34 -14 35 hhcurveto
            57 59 35 62 70 -54 26 -62 hvcurveto
            return
          </CharString>
          <CharString index="40">
            737 357 rmoveto
            203 -136 149 -219 return
          </CharString>
          <CharString index="41">
            22 -25 -32 12 -32 -71 -53 -68 -60 hhcurveto
            -32 -28 9 25 -21 hvcurveto
            -48 vlineto
            -24 20 28 -10 30 72 53 68 62 hhcurveto
            32 32 -12 -22 25 hvcurveto
            return
          </CharString>
          <CharString index="42">
            16 callsubr
            189 -20 -98 callgsubr
            return
          </CharString>
          <CharString index="43">
            -40 -92 -22 92 -225 vlineto
            -72 callsubr
            225 132 22 return
          </CharString>
          <CharString index="44">
            -78 callgsubr
            -80 -96 callgsubr
            89 return
          </CharString>
          <CharString index="45">
            -77 194 rlineto
            -28 70 -19 58 -17 callsubr
            -248 -63 callgsubr
            42 33 -10 -122 48 hvcurveto
            return
          </CharString>
          <CharString index="46">
            33 13 20 12 24 48 35 -42 55 hhcurveto
            return
          </CharString>
          <CharString index="47">
            57 -22 103 94 hhcurveto
            82 17 -62 -86 hvcurveto
            return
          </CharString>
          <CharString index="48">
            -12 callsubr
            -2 12 rlineto
            -90 return
          </CharString>
          <CharString index="49">
            -49 -24 40 50 75 58 66 158 2 hvcurveto
            return
          </CharString>
          <CharString index="50">
            -111 -92 callgsubr
            308 -91 callgsubr
            -110 -7 return
          </CharString>
          <CharString index="51">
            24 -32 11 -119 155 vhcurveto
            -28 -21 92 -169 -92 -169 28 -21 rlineto
            119 155 32 11 24 vvcurveto
            return
          </CharString>
          <CharString index="52">
            -29 -16 26 35 32 16 28 29 28 16 -28 -32 -35 -16 -26 -28 hvcurveto
            endchar
          </CharString>
          <CharString index="53">
            rmoveto
            -101 -51 101 125 126 46 return
          </CharString>
          <CharString index="54">
            rmoveto
            -31 26 -26 31 31 26 26 31 31 -26 26 -31 -31 -26 -26 -31 vhcurveto
            return
          </CharString>
          <CharString index="55">
            rlineto
            16 callgsubr
            13 32 28 -21 16 -25 -37 -98 -23 -10 -50 hvcurveto
            10 43 26 124 41 vvcurveto
            25 -16 21 -28 -32 -13 -21 -25 -41 25 -124 11 -43 vhcurveto
            10 -50 -97 23 -37 hhcurveto
            return
          </CharString>
          <CharString index="56">
            vlineto
            -145 -4 -17 -90 callsubr
            16 137 hvcurveto
            87 vlineto
            -14 100 61 -238 108 hhcurveto
            100 -91 callgsubr
            -144 -14 229 21 -165 hvcurveto
            return
          </CharString>
          <CharString index="57">
            -14 callsubr
            -62 callsubr
            return
          </CharString>
          <CharString index="58">
            -91 callgsubr
            -78 -7 16 137 hvcurveto
            158 vlineto
            103 -50 57 return
          </CharString>
          <CharString index="59">
            53 callgsubr
            128 -66 102 -129 return
          </CharString>
          <CharString index="60">
            -218 -129 -149 -203 return
          </CharString>
          <CharString index="61">
            20 194 hvcurveto
            return
          </CharString>
          <CharString index="62">
            9 40 27 129 42 vvcurveto
            25 -21 21 -23 -26 -19 -21 -25 -42 27 -129 10 -40 vhcurveto
            return
          </CharString>
          <CharString index="63">
            hlineto
            -66 callgsubr
            return
          </CharString>
          <CharString index="64">
            10 callgsubr
            -61 callgsubr
          </CharString>
          <CharString index="65">
            6 callsubr
            30 293 rmoveto
            -24 32 -11 119 -155 vhcurveto
            28 21 -92 169 92 169 -28 21 rlineto
            -119 -155 -32 -11 -24 vvcurveto
            return
          </CharString>
          <CharString index="66">
            220 127 163 204 return
          </CharString>
          <CharString index="67">
            37 29 29 74 16 hvcurveto
            endchar
          </CharString>
          <CharString index="68">
            -63 callgsubr
            90 return
          </CharString>
          <CharString index="69">
            51 hlineto
            302 723 rlineto
            -51 hlineto
            return
          </CharString>
          <CharString index="70">
            -23 -44 -18 -19 -8 -8 rrcurveto
            44 -27 -54 27 -56 hhcurveto
            -88 -93 -65 -167 hvcurveto
            return
          </CharString>
          <CharString index="71">
            15 -4 rlineto
            6 49 9 60 63 vvcurveto
            23 -45 -74 18 -65 hhcurveto
            -109 -87 -66 -99 hvcurveto
            -209 346 -14 -169 vvcurveto
            -102 -74 -37 -81 vhcurveto
            return
          </CharString>
          <CharString index="72">
            -29 callgsubr
            457 -20 return
          </CharString>
          <CharString index="73">
            48 153 -20 hstem
            251 48 vstem
            98 295 rmoveto
            153 -153 48 153 153 48 -153 153 -48 -153 -153 hlineto
            return
          </CharString>
          <CharString index="74">
            -194 hvcurveto
            return
          </CharString>
          <CharString index="75">
            rmoveto
            -45 -29 -34 -33 -47 hhcurveto
            -47 -34 30 48 -29 hvcurveto
            -28 -16 rlineto
            -121 47 67 -8 24 hhcurveto
            24 67 8 121 47 hvcurveto
            endchar
          </CharString>
          <CharString index="76">
            0 23 317 22 315 23 return
          </CharString>
          <CharString index="77">
            -92 -3 -36 -141 -104 hhcurveto
            return
          </CharString>
          <CharString index="78">
            -91 callgsubr
            -79 -5 15 138 89 28 198 107 67 20 36 callsubr
            -75 -92 callgsubr
            return
          </CharString>
          <CharString index="79">
            -20 hstem
            452 343 rmoveto
            -354 140 rlineto
            -48 vlineto
            299 -116 -299 -116 rlineto
            -48 vlineto
            354 140 rlineto
            return
          </CharString>
          <CharString index="80">
            vlineto
            -85 callsubr
            return
          </CharString>
          <CharString index="81">
            25 -25 67 3 -20 hstemhm
            return
          </CharString>
          <CharString index="82">
            93 9 callsubr
            110 180 9 235 vhcurveto
            -464 -645 rlineto
            -32 547 145 vlineto
            return
          </CharString>
          <CharString index="83">
            90 20 19 callsubr
            -370 vlineto
            -477 595 rlineto
            -136 50 callsubr
            19 -15 callgsubr
            -247 vlineto
            return
          </CharString>
          <CharString index="84">
            rmoveto
            -36 -34 7 23 -29 hvcurveto
            184 vlineto
            59 35 160 102 106 21 -134 -83 -88 -36 -128 -129 vhcurveto
            endchar
          </CharString>
          <CharString index="85">
            21 -7 callsubr
            return
          </CharString>
          <CharString index="86">
            89 vstem
            78 478 rmoveto
            -45 callsubr
            return
          </CharString>
          <CharString index="87">
            -21 -18 rlineto
            -38 30 48 -13 39 hhcurveto
            71 70 50 72 39 -28 49 -74 9 hvcurveto
            42 14 43 31 50 vvcurveto
            endchar
          </CharString>
          <CharString index="88">
            -195 hvcurveto
            return
          </CharString>
          <CharString index="89">
            rmoveto
            74 -61 22 -57 -67 -52 -25 -35 -14 12 -12 18 vhcurveto
            return
          </CharString>
          <CharString index="90">
            36 vvcurveto
            29 14 16 35 callsubr
            return
          </CharString>
          <CharString index="91">
            21 -21 451 22 return
          </CharString>
          <CharString index="92">
            248 13 rmoveto
            -88 -78 62 137 hvcurveto
            -15 3 rlineto
            -6 -49 -6 -50 -63 vvcurveto
            -44 48 82 -19 62 hhcurveto
            return
          </CharString>
          <CharString index="93">
            53 17 -22 -32 -21 -5 -32 -18 -56 hvcurveto
            -78 -240 return
          </CharString>
          <CharString index="94">
            rmoveto
            19 -20 112 76 rlineto
            33 23 6 12 20 vvcurveto
            16 -14 18 -20 -20 -16 -14 -14 -11 vhcurveto
            return
          </CharString>
          <CharString index="95">
            -71 callgsubr
            269 hlineto
            return
          </CharString>
          <CharString index="96">
            vlineto
            28 callsubr
            return
          </CharString>
          <CharString index="97">
            -4 callsubr
            2 -11 rlineto
            90 return
          </CharString>
          <CharString index="98">
            317 8 callgsubr
            return
          </CharString>
          <CharString index="99">
            77 -10 20 453 20 return
          </CharString>
          <CharString index="100">
            -21 700 -20 return
          </CharString>
          <CharString index="101">
            2 12 rlineto
            return
          </CharString>
          <CharString index="102">
            643 -53 callsubr
            return
          </CharString>
          <CharString index="103">
            7 callsubr
            -269 hlineto
            return
          </CharString>
          <CharString index="104">
            -20 hstem
            35 87 528 87 vstem
            return
          </CharString>
          <CharString index="105">
            hhcurveto
            -2 -12 rlineto
            return
          </CharString>
          <CharString index="106">
            -65 4 -34 6 -35 vhcurveto
            30 28 6 8 23 hvcurveto
            -18 28 -3 76 109 vvcurveto
            return
          </CharString>
          <CharString index="107">
            hstem
            110 70 264 76 vstem
            334 30 callgsubr
            -90 -45 -69 -62 -19 hvcurveto
            return
          </CharString>
          <CharString index="108">
            -76 callgsubr
            endchar
          </CharString>
          <CharString index="109">
            354 48 44 callgsubr
            endchar
          </CharString>
          <CharString index="110">
            88 11 -27 -169 hvcurveto
            return
          </CharString>
          <CharString index="111">
            90 274 rlineto
            179 59 4 11 56 -6 callgsubr
            -188 hlineto
            return
          </CharString>
          <CharString index="112">
            43 callsubr
            -6 -71 callgsubr
            268 -91 callgsubr
            -90 return
          </CharString>
          <CharString index="113">
            124 -21 380 -20 hstem
            return
          </CharString>
          <CharString index="114">
            90 11 callgsubr
            return
          </CharString>
          <CharString index="115">
            700 rmoveto
            return
          </CharString>
          <CharString index="116">
            8 callsubr
            -144 vlineto
            12 2 rlineto
            return
          </CharString>
          <CharString index="117">
            hhcurveto
            -220 -129 -160 -199 return
          </CharString>
          <CharString index="118">
            hstem
            131 70 return
          </CharString>
          <CharString index="119">
            vlineto
            -84 -71 -16 callgsubr
            78 5 -10 -129 hvcurveto
            return
          </CharString>
          <CharString index="120">
            32 277 86 -23 23 hstemhm
            251 60 hintmask 11010000
            311 return
          </CharString>
          <CharString index="121">
            -83 -75 -16 callgsubr
            82 4 -12 -145 hvcurveto
            return
          </CharString>
          <CharString index="122">
            -244 -173 -21 914 -20 hstem
            75 61 vstem
            136 return
          </CharString>
          <CharString index="123">
            -85 -22 callsubr
            return
          </CharString>
          <CharString index="124">
            -22 callsubr
            hstem
            return
          </CharString>
          <CharString index="125">
            240 -20 hstem
            return
          </CharString>
          <CharString index="126">
            -20 -33 callsubr
            return
          </CharString>
          <CharString index="127">
            83 9 -104 47 hhcurveto
            20 17 16 19 51 -78 44 -99 return
          </CharString>
          <CharString index="128">
            -87 -98 -36 -160 vhcurveto
            -36 16 -4 36 139 vvcurveto
            return
          </CharString>
          <CharString index="129">
            hstem
            150 return
          </CharString>
          <CharString index="130">
            -90 -92 callgsubr
            246 -91 callgsubr
            -90 return
          </CharString>
          <CharString index="131">
            -144 145 175 178 144 143 return
          </CharString>
          <CharString index="132">
            -155 21 -21 713 23 hstem
            113 70 vstem
            return
          </CharString>
          <CharString index="133">
            585 -21 165 -20 hstem
            return
          </CharString>
          <CharString index="134">
            hintmask 100111100100111000000000
            return
          </CharString>
          <CharString index="135">
            -194 -7 -20 return
          </CharString>
          <CharString index="136">
            70 242 70 return
          </CharString>
          <CharString index="137">
            2 11 rlineto
            return
          </CharString>
          <CharString index="138">
            vlineto
            0 54 -27 106 156 94 106 139 return
          </CharString>
          <CharString index="139">
            204 473 rmoveto
            104 vlineto
            97 57 43 59 return
          </CharString>
          <CharString index="140">
            -21 397 -20 hstem
            178 58 vstem
            222 return
          </CharString>
          <CharString index="141">
            7 28 callgsubr
            return
          </CharString>
          <CharString index="142">
            48 vhcurveto
            -6 callsubr
            return
          </CharString>
          <CharString index="143">
            -53 -86 hvcurveto
            -139 vlineto
            -146 -2 -16 return
          </CharString>
          <CharString index="144">
            hstemhm
            57 25 -25 67 279 34 -34 67 return
          </CharString>
          <CharString index="145">
            hlineto
            -194 -8 -71 callgsubr
            return
          </CharString>
          <CharString index="146">
            -134 753 -21 137 -20 hstem
            return
          </CharString>
          <CharString index="147">
            89 221 -20 hstem
            234 89 vstem
            return
          </CharString>
          <CharString index="148">
            -83 -36 -55 9 19 -35 hvcurveto
            endchar
          </CharString>
          <CharString index="149">
            rlineto
            243 return
          </CharString>
          <CharString index="150">
            vlineto
            -194 return
          </CharString>
          <CharString index="151">
            -126 -64 -21 755 -20 hstem
            return
          </CharString>
          <CharString index="152">
            540 8 callsubr
            -66 callgsubr
            return
          </CharString>
          <CharString index="153">
            73 -10 31 -5 -21 54 callgsubr
            return
          </CharString>
          <CharString index="154">
            rmoveto
            -34 17 -3 35 138 vvcurveto
            return
          </CharString>
          <CharString index="155">
            -7 -46 callsubr
            return
          </CharString>
          <CharString index="156">
            64 27 74 37 hvcurveto
            return
          </CharString>
          <CharString index="157">
            hlineto
            19 callgsubr
            return
          </CharString>
          <CharString index="158">
            hlineto
            -1 15 rlineto
            return
          </CharString>
          <CharString index="159">
            108 hstem
            return
          </CharString>
          <CharString index="160">
            hvcurveto
            183 return
          </CharString>
          <CharString index="161">
            hvcurveto
            -134 return
          </CharString>
        <CharString name=".notdef">
          45 endchar
        </CharString>
        <CharString name="A">
          200 21 -21 219 24 457 -103 callsubr
          endchar
        </CharString>
        <CharString name="AE">
          468 -31 callsubr
          hstem
          457 69 vstem
          849 143 rmoveto
          -103 callgsubr
          -603 vlineto
          -66 callgsubr
          53 15 -9 -31 -44 -20 -63 -27 -64 hvcurveto
          -110 -257 rlineto
          -189 -80 -32 -20 -70 -2 callsubr
          226 -91 callgsubr
          -51 -25 3 39 31 28 53 35 81 hvcurveto
          52 121 rlineto
          244 -114 38 callsubr
          504 43 callgsubr
          -404 217 rmoveto
          -235 hlineto
          137 320 rlineto
          90 -1 8 -25 -192 vvcurveto
          endchar
        </CharString>
        <CharString name="Aacute">
          -83 callsubr
          221 626 -93 callgsubr
        </CharString>
        <CharString name="Acircumflex">
          -35 callsubr
          203 -103 callsubr
          165 566 -102 callsubr
        </CharString>
        <CharString name="Adieresis">
          -35 callsubr
          59 52 callsubr
          254 99 vstem
          -106 callsubr
          -16 550 -107 callgsubr
        </CharString>
        <CharString name="Agrave">
          -83 callsubr
          63 626 rmoveto
          -20 -19 -12 -23 -16 7 -19 36 -11 53 callsubr
          -56 11 25 -163 99 rlineto
          9 -14 -10 4 -11 hhcurveto
          endchar
        </CharString>
        <CharString name="Aring">
          -35 callsubr
          173 39 hstem
          258 89 vstem
          303 892 rmoveto
          -60 -39 -45 -54 -43 24 -36 39 -14 hvcurveto
          -73 -104 callgsubr
          -28 -23 -4 -46 vhcurveto
          -85 callgsubr
          -20 hlineto
          39 14 24 36 43 vvcurveto
          54 -38 45 -61 vhcurveto
          -246 vmoveto
          -40 callgsubr
          141 489 rmoveto
          -55 callsubr
        </CharString>
        <CharString name="Atilde">
          -29 callgsubr
          446 57 42 -26 callsubr
          hintmask 11110100
          -38 callgsubr
          hintmask 11101000
          -107 callsubr
          292 615 -84 callsubr
          hintmask 11110100
          -40 callsubr
        </CharString>
        <CharString name="B">
          163 21 -21 371 20 286 23 hstemhm
          150 70 214 87 -37 37 -37 87 hintmask 11111000
          358 384 rmoveto
          71 16 92 42 100 vvcurveto
          141 -173 17 -74 vhcurveto
          -224 -63 callgsubr
          91 7 -20 -80 callgsubr
          -7 -20 -91 -92 callgsubr
          235 hlineto
          hintmask 11110010
          167 119 56 140 130 -121 48 -92 10 hvcurveto
          hintmask 11111000
          76 158 rmoveto
          -122 -100 -29 -105 vhcurveto
          -9 286 hlineto
          165 49 -60 -75 hvcurveto
          -175 -519 rmoveto
          -36 16 -3 33 139 vvcurveto
          160 15 vlineto
          hintmask 11110100
          89 160 -14 -161 -165 -177 -8 -48 hvcurveto
          endchar
        </CharString>
        <CharString name="C">
          257 -10 29 667 23 hstem
          50 87 vstem
          682 107 rmoveto
          -55 callgsubr
          -200 138 -160 219 129 80 37 50 66 hvcurveto
          endchar
        </CharString>
        <CharString name="Ccedilla">
          257 47 callgsubr
          695 23 hstemhm
          50 87 282 60 hintmask 10111100
          324 -68 callsubr
          19 56 rlineto
          hintmask 11011100
          8 8 -1 9 hhcurveto
          129 80 37 50 66 hvcurveto
          30 vlineto
          -55 callgsubr
          -183 115 -149 186 -24 hvcurveto
          endchar
        </CharString>
        <CharString name="D">
          309 0 23 654 23 12 callgsubr
          422 87 vstem
          50 8 callsubr
          -86 callsubr
          269 hlineto
          93 317 15 335 340 -310 10 -167 hvcurveto
          5 -676 47 callsubr
          457 -23 callgsubr
        </CharString>
        <CharString name="Delta">
          125 0 50 593 -20 hstem
          530 hmoveto
          -207 643 rlineto
          -66 hlineto
          -207 -643 rlineto
          220 582 rmoveto
          171 -532 rlineto
          -342 hlineto
          endchar
        </CharString>
        <CharString name="E">
          -34 callgsubr
          -105 callsubr
          endchar
        </CharString>
        <CharString name="Eacute">
          -81 callsubr
          -147 724 -93 callgsubr
        </CharString>
        <CharString name="Ecircumflex">
          -34 callgsubr
          183 -20 -105 callsubr
          -246 664 -102 callsubr
        </CharString>
        <CharString name="Edieresis">
          -34 callgsubr
          39 108 -105 callsubr
          -404 648 -107 callgsubr
        </CharString>
        <CharString name="Egrave">
          -81 callsubr
          -326 724 rmoveto
          -20 -19 -12 -23 -16 7 -19 36 -11 53 callsubr
          -56 11 25 -163 99 rlineto
          9 -14 -10 4 -11 hhcurveto
          endchar
        </CharString>
        <CharString name="Eth">
          309 0 23 303 50 301 23 12 callgsubr
          422 87 vstem
          50 326 rmoveto
          100 -100 38 callsubr
          269 hlineto
          93 317 15 335 340 -310 10 -167 hvcurveto
          -202 50 callsubr
          8 28 callgsubr
          -98 -100 vlineto
          207 -352 47 callsubr
          112 170 50 -170 295 -23 callgsubr
        </CharString>
        <CharString name="Euro">
          -10 29 210 38 102 38 220 26 hstem
          95 72 303 27 vstem
          19 369 rmoveto
          78 hlineto
          -2 -16 0 -15 -16 vvcurveto
          -19 1 -18 1 -18 vhcurveto
          -78 -38 83 hlineto
          -139 22 76 -100 124 hhcurveto
          88 55 37 50 45 hvcurveto
          -13 13 rlineto
          -34 -34 -41 -37 -86 hhcurveto
          -90 -57 85 125 -18 hvcurveto
          216 38 -220 hlineto
          -1 17 -1 19 19 vvcurveto
          16 0 16 1 15 vhcurveto
          221 38 -218 hlineto
          132 15 52 88 91 hhcurveto
          64 77 -43 -124 hvcurveto
          13 -3 rlineto
          7 45 7 55 58 vvcurveto
          21 -41 -68 17 -60 hhcurveto
          -124 -80 -105 -141 -23 hvcurveto
          -82 hlineto
          endchar
        </CharString>
        <CharString name="F">
          84 21 -21 340 22 315 23 22 callsubr
          71 vstem
          50 8 callsubr
          -86 callsubr
          300 -91 callgsubr
          -120 48 callsubr
          114 vlineto
          153 -3 12 -21 -84 vvcurveto
          12 -2 42 callsubr
          vlineto
          -12 -2 rlineto
          -83 -12 -22 -153 -4 vhcurveto
          315 vlineto
          180 105 -26 -93 hvcurveto
          11 -2 rlineto
          144 vlineto
          endchar
        </CharString>
        <CharString name="G">
          340 8 callgsubr
          hstem
          50 87 462 70 vstem
          755 337 rmoveto
          2 10 rlineto
          -245 hlineto
          2 -10 rlineto
          82 3 -17 -145 hvcurveto
          -78 vlineto
          -57 -37 -60 -27 -97 hhcurveto
          -69 callsubr
          177 111 108 -51 -113 16 hvcurveto
          11 -2 rlineto
          128 vlineto
          25 -39 -105 36 -102 10 callsubr
          -200 138 -160 217 102 100 34 39 62 hvcurveto
          124 vlineto
          126 9 24 77 vhcurveto
          endchar
        </CharString>
        <CharString name="H">
          389 21 -21 336 26 338 -20 12 callgsubr
          405 70 vstem
          792 689 rmoveto
          -54 callgsubr
          92 34 callsubr
          -112 -405 112 vlineto
          -99 callsubr
          110 405 -110 -11 callsubr
          -92 -92 callgsubr
          270 -91 callgsubr
          -90 48 callsubr
          248 vlineto
          194 7 21 90 vhcurveto
          endchar
        </CharString>
        <CharString name="I">
          -85 21 -21 700 -20 -98 callgsubr
          endchar
        </CharString>
        <CharString name="Iacute">
          -65 callsubr
          44 643 -93 callgsubr
        </CharString>
        <CharString name="Icircumflex">
          16 callsubr
          203 -20 -98 callgsubr
          -35 583 -102 callsubr
        </CharString>
        <CharString name="Idieresis">
          16 callsubr
          59 108 -98 callgsubr
          -192 567 -107 callgsubr
        </CharString>
        <CharString name="Igrave">
          -65 callsubr
          -115 643 rmoveto
          -20 -19 -12 -23 -16 7 -19 36 -11 53 callsubr
          -56 11 25 -163 99 rlineto
          9 -14 -10 4 -11 hhcurveto
          endchar
        </CharString>
        <CharString name="J">
          9 -10 23 687 -20 hstem
          259 70 vstem
          152 -10 rmoveto
          74 103 19 210 hvcurveto
          255 vlineto
          195 8 20 4 callgsubr
          -302 vlineto
          -107 -36 -52 -67 vhcurveto
          -109 67 134 -74 hhcurveto
          -25 -15 -18 -25 -47 63 -67 89 hvcurveto
          endchar
        </CharString>
        <CharString name="J.alt">
          -85 -274 25 -25 103 871 -20 hstemhm
          150 70 hintmask 10110000
          53 689 rmoveto
          90 34 callsubr
          -484 vlineto
          -191 -48 -48 -91 vhcurveto
          hintmask 01110000
          -73 27 78 -65 hhcurveto
          -22 -17 -17 -20 -61 93 -5 43 112 111 46 208 hvcurveto
          494 vlineto
          195 8 20 -4 callsubr
          endchar
        </CharString>
        <CharString name="K">
          213 17 callsubr
          150 70 vstem
          282 357 rmoveto
          153 238 -59 179 206 hhcurveto
          30 callsubr
          -248 -44 callsubr
          39 10 -11 -22 -113 -166 -168 -86 -15 hvcurveto
          114 vlineto
          194 7 21 90 vhcurveto
          2 11 rlineto
          -269 hlineto
          -86 callsubr
          269 -91 callgsubr
          -90 48 callsubr
          116 vlineto
          -5 160 98 -337 106 hhcurveto
          139 -91 callgsubr
          -206 12 331 14 -245 hvcurveto
          endchar
        </CharString>
        <CharString name="L">
          31 callgsubr
          518 143 rmoveto
          21 callsubr
          263 vlineto
          194 8 21 4 callgsubr
          -248 vlineto
          -194 -7 -71 callgsubr
          478 43 callgsubr
          endchar
        </CharString>
        <CharString name="Lslash">
          31 callgsubr
          54 306 rmoveto
          96 49 rlineto
          -129 vlineto
          -194 -7 -71 callgsubr
          478 43 callgsubr
          36 callgsubr
          21 callsubr
          180 vlineto
          116 59 -17 33 -99 -51 rlineto
          42 vlineto
          194 8 21 4 callgsubr
          -78 vlineto
          -113 -57 rlineto
          endchar
        </CharString>
        <CharString name="M">
          519 17 callsubr
          160 25 569 70 vstem
          824 474 rmoveto
          194 8 21 7 callsubr
          -175 hlineto
          -255 -583 -309 583 rlineto
          -134 50 callsubr
          17 -20 -196 hvcurveto
          -245 vlineto
          -196 -17 -20 23 callsubr
          -20 20 196 hvcurveto
          323 vlineto
          289 -541 280 639 rlineto
          -423 5 callsubr
          -43 callgsubr
          endchar
        </CharString>
        <CharString name="N">
          372 16 -21 26 -7 callsubr
          hstemhm
          150 25 477 25 hintmask 01111000
          45 callsubr
          -24 callsubr
          -14 callgsubr
          hintmask 10111000
          471 -595 rlineto
          21 callgsubr
          endchar
        </CharString>
        <CharString name="Ntilde">
          372 16 -21 26 -21 689 57 -46 -20 108 -26 callsubr
          150 25 477 25 hintmask 1010101110000000
          45 callsubr
          hintmask 1010010110000000
          -24 callsubr
          hintmask 1001101110000000
          -14 callgsubr
          471 -595 rlineto
          hintmask 1010010110000000
          21 callgsubr
          hintmask 0110010110000000
          -248 158 rmoveto
          hintmask 1001010110000000
          -87 callsubr
          hintmask 1010010110000000
          -33 callgsubr
        </CharString>
        <CharString name="O">
          -9 callsubr
          -104 callsubr
          endchar
        </CharString>
        <CharString name="OE">
          502 0 23 317 22 314 24 hstem
          35 87 369 69 vstem
          390 23 rmoveto
          -175 -93 132 195 194 85 132 175 90 19 28 callgsubr
          -224 43 callsubr
          -12 -20 -89 vhcurveto
          505 -23 rmoveto
          145 vlineto
          -12 -2 rlineto
          -103 callgsubr
          -476 vlineto
          -218 -129 -140 -203 -204 137 -153 219 hvcurveto
          endchar
        </CharString>
        <CharString name="Oacute">
          -76 callsubr
          -185 519 -93 callgsubr
        </CharString>
        <CharString name="Ocircumflex">
          -9 callsubr
          174 -20 -104 callsubr
          -264 459 -102 callsubr
        </CharString>
        <CharString name="Odieresis">
          -9 callsubr
          30 108 -104 callsubr
          -422 443 -107 callgsubr
        </CharString>
        <CharString name="Ograve">
          -76 callsubr
          -344 519 rmoveto
          -20 -19 -12 -23 -16 7 -19 36 -11 53 callsubr
          -56 11 25 -163 99 rlineto
          9 -14 -10 4 -11 hhcurveto
          endchar
        </CharString>
        <CharString name="Omega">
          286 10 23 596 24 hstem
          83 72 111 26 157 27 111 72 vstem
          372 629 rmoveto
          138 77 -107 -151 -115 -42 -90 -100 -36 hvcurveto
          9 -120 rlineto
          182 hlineto
          25 145 -12 -2 rlineto
          -87 -15 -53 -33 -102 hhcurveto
          -6 77 rlineto
          125 40 61 102 125 vvcurveto
          159 -104 117 -184 -184 -104 -117 -159 -125 61 -102 125 -40 vhcurveto
          -6 -77 rlineto
          -102 -54 33 87 -15 hvcurveto
          -12 2 25 -145 rlineto
          183 hlineto
          9 120 rlineto
          -100 36 -42 90 115 vvcurveto
          151 77 107 140 vhcurveto
          endchar
        </CharString>
        <CharString name="Oslash">
          317 -89 -21 100 20 callgsubr
          100 -3 callsubr
          547 809 rmoveto
          -50 hlineto
          -32 -108 rlineto
          5 -26 -28 3 -29 hhcurveto
          -47 callsubr
          -160 84 -135 142 -51 hvcurveto
          -36 -121 rlineto
          49 hlineto
          32 109 rlineto
          -6 27 27 -3 30 hhcurveto
          -41 callsubr
          159 -84 126 -142 47 hvcurveto
          139 -339 -46 callgsubr
          -28 -25 4 6 -23 vhcurveto
          188 635 rlineto
          97 -50 51 -115 -143 vvcurveto
          -528 hmoveto
          194 85 142 175 27 25 -4 -6 23 vhcurveto
          -188 -636 rlineto
          -97 51 -50 115 144 vvcurveto
          endchar
        </CharString>
        <CharString name="Otilde">
          -9 callsubr
          79 -26 callsubr
          35 87 528 87 hintmask 11101110
          -67 callsubr
          vhcurveto
          hintmask 11010110
          -47 callsubr
          -204 136 -163 219 -41 callsubr
          hvcurveto
          -95 callsubr
          -138 508 -82 callsubr
        </CharString>
        <CharString name="P">
          142 21 -21 295 25 380 -20 12 callgsubr
          279 78 vstem
          50 8 callsubr
          -36 callgsubr
          90 8 -20 -80 callgsubr
          -8 -71 callgsubr
          270 -91 callgsubr
          -90 -43 callgsubr
          97 vlineto
          -15 32 42 -13 69 hhcurveto
          116 98 82 121 163 -131 39 -134 hvcurveto
          -92 -23 rmoveto
          65 hlineto
          97 117 -22 -157 -126 -70 -52 41 callsubr
        </CharString>
        <CharString name="Q">
          317 -135 53 55 40 673 23 -89 callsubr
          -182 107 -148 178 -31 vhcurveto
          -33 -4 -19 -5 -11 -5 5 -20 rcurveline
          6 18 21 5 22 123 103 -108 111 hhcurveto
          90 48 41 39 36 hvcurveto
          -12 13 rlineto
          -23 -34 -42 -17 -55 hhcurveto
          -98 -57 58 19 -86 53 callsubr
          26 104 151 185 vvcurveto
          -95 callsubr
          endchar
        </CharString>
        <CharString name="R">
          195 21 -21 350 20 330 -20 22 callsubr
          69 239 78 vstem
          698 12 rmoveto
          -179 1 -4 246 -155 91 rrcurveto
          92 10 84 68 102 vvcurveto
          144 -138 26 -114 vhcurveto
          -232 -39 callsubr
          6 -15 -33 callsubr
          -253 5 callsubr
          -9 -46 callsubr
          124 vlineto
          -9 194 39 -341 109 hhcurveto
          139 hlineto
          -481 677 rmoveto
          65 hlineto
          110 64 -49 -100 -114 -83 -44 -93 hvcurveto
          -63 hlineto
          endchar
        </CharString>
        <CharString name="S">
          70 -10 23 674 22 37 callsubr
          hintmask 11100100
          -15 callsubr
          -4 callgsubr
          vhcurveto
          hintmask 11011000
          70 83 -50 -137 hvcurveto
          -36 callsubr
          endchar
        </CharString>
        <CharString name="Scaron">
          70 -10 23 674 22 0 23 151 -20 37 callsubr
          hintmask 10110110
          hintmask 11011001
          -15 callsubr
          hintmask 11010110
          -4 callgsubr
          70 83 -50 -137 vhcurveto
          -36 callsubr
          -104 870 -79 callgsubr
        </CharString>
        <CharString name="T">
          151 21 -21 680 20 hstem
          269 70 vstem
          15 9 callsubr
          86 88 36 154 vhcurveto
          -454 -67 callgsubr
          454 vlineto
          154 88 -36 -86 hvcurveto
          10 -2 rlineto
          144 vlineto
          endchar
        </CharString>
        <CharString name="Thorn">
          142 21 -21 152 24 365 23 136 -20 12 callgsubr
          279 78 vstem
          363 152 rmoveto
          116 98 84 121 163 -131 44 -134 hvcurveto
          -91 hlineto
          111 4 19 14 74 hhcurveto
          -96 callsubr
          -83 -14 16 152 -1 hvcurveto
          -15 32 42 -13 69 hhcurveto
          -143 52 rmoveto
          337 65 vlineto
          97 117 -27 -157 -126 -70 -55 41 callsubr
        </CharString>
        <CharString name="U">
          6 callgsubr
          -105 callgsubr
          endchar
        </CharString>
        <CharString name="Uacute">
          -80 callsubr
          -276 181 -93 callgsubr
        </CharString>
        <CharString name="Ucircumflex">
          6 callgsubr
          203 -20 -105 callgsubr
          -355 121 -102 callsubr
        </CharString>
        <CharString name="Udieresis">
          6 callgsubr
          59 108 -105 callgsubr
          -513 105 -107 callgsubr
        </CharString>
        <CharString name="Ugrave">
          -80 callsubr
          -455 181 rmoveto
          -20 -19 -12 -23 -16 7 -19 36 -11 53 callsubr
          -56 11 25 -163 99 rlineto
          9 -14 -10 4 -11 hhcurveto
          endchar
        </CharString>
        <CharString name="V">
          322 16 -21 705 -20 hstem
          529 688 rmoveto
          51 25 -6 -41 -31 -15 -47 -29 -84 hvcurveto
          -148 -425 -156 425 rlineto
          -34 94 -19 48 30 vvcurveto
          33 23 4 46 vhcurveto
          -6 callsubr
          -270 -63 callgsubr
          91 11 -15 -194 71 hvcurveto
          177 -484 rlineto
          63 hlineto
          168 484 rlineto
          194 68 24 15 90 -6 callgsubr
          -245 hlineto
          endchar
        </CharString>
        <CharString name="W">
          636 16 -21 705 -20 hstem
          835 8 callsubr
          -36 callgsubr
          45 31 -4 -34 -30 -13 -57 -26 -84 hvcurveto
          -132 -421 -141 421 rlineto
          -31 91 -15 47 31 vvcurveto
          36 22 4 47 -60 callgsubr
          90 10 -15 -205 70 hvcurveto
          -131 -410 -139 421 rlineto
          -30 92 -18 48 31 vvcurveto
          34 22 4 48 -60 callgsubr
          90 11 -14 -195 65 hvcurveto
          162 -484 rlineto
          63 hlineto
          134 432 145 -432 rlineto
          64 hlineto
          153 484 rlineto
          194 62 20 15 92 hhcurveto
          1 12 rlineto
          endchar
        </CharString>
        <CharString name="X">
          385 17 callsubr
          379 479 rmoveto
          -81 118 -42 49 24 vvcurveto
          16 10 2 43 -60 callgsubr
          89 28 -15 -194 131 hvcurveto
          96 -143 -80 -115 rlineto
          -195 -136 -39 -14 -92 -2 callsubr
          255 -91 callgsubr
          -41 -22 3 22 26 35 47 76 111 hvcurveto
          63 93 63 -93 rlineto
          80 -119 42 -47 -24 vvcurveto
          -17 -12 -2 -40 -92 callgsubr
          268 -91 callgsubr
          -90 -25 15 194 -131 hvcurveto
          -106 155 72 103 rlineto
          195 136 41 14 88 -6 callgsubr
          -253 -63 callgsubr
          41 22 -2 -22 -27 -35 -50 -76 -108 hvcurveto
          -56 -79 rlineto
          endchar
        </CharString>
        <CharString name="Y">
          266 17 callsubr
          410 -97 callsubr
          endchar
        </CharString>
        <CharString name="Yacute">
          266 -22 callsubr
          189 -20 hstem
          383 -97 callsubr
          91 643 -93 callgsubr
        </CharString>
        <CharString name="Ydieresis">
          266 -22 callsubr
          59 108 hstemhm
          311 99 -97 70 hintmask 11101000
          383 -97 callsubr
          -180 567 rmoveto
          -29 25 -25 29 vhcurveto
          hintmask 11110000
          -101 callgsubr
          hvcurveto
          207 hmoveto
          -106 callgsubr
          endchar
        </CharString>
        <CharString name="Z">
          218 0 23 654 23 hstem
          -25 callsubr
          -1 callgsubr
          endchar
        </CharString>
        <CharString name="Zcaron">
          218 0 23 654 23 -23 55 151 -20 hstemhm
          hintmask 10110000
          -25 callsubr
          hintmask 11010000
          -1 callgsubr
          -392 183 -79 callgsubr
        </CharString>
        <CharString name="a">
          -50 callgsubr
          3 callgsubr
          hintmask 01011110
          -100 callgsubr
          hintmask 00111110
          -55 4 -54 6 -25 -65 callgsubr
          hintmask 10011110
          -75 callsubr
          endchar
        </CharString>
        <CharString name="aacute">
          -88 callgsubr
          136 708 -94 callsubr
        </CharString>
        <CharString name="acircumflex">
          46 callsubr
          0 81 103 22 240 -20 3 callgsubr
          hintmask 10101111
          -100 callgsubr
          -70 callsubr
          -87 callgsubr
          -213 -201 rmoveto
          hintmask 01101111
          -58 callsubr
          hintmask 10011111
          -30 callsubr
          50 628 -102 callsubr
        </CharString>
        <CharString name="acute">
          -134 26 callsubr
          227 729 -94 callsubr
        </CharString>
        <CharString name="acute.case">
          39 callsubr
          239 869 -93 callgsubr
        </CharString>
        <CharString name="adieresis">
          -50 callgsubr
          106 108 -100 callsubr
          -98 622 -107 callgsubr
        </CharString>
        <CharString name="ae">
          340 -10 29 234 29 179 22 hstem
          50 76 216 75 251 77 vstem
          745 -48 callsubr
          -69 -52 -30 -48 -34 vhcurveto
          53 -27 -54 25 -67 hhcurveto
          -47 callgsubr
          hvcurveto
          -60 callsubr
          -31 vlineto
          -212 -2 -80 -69 -26 callgsubr
          112 42 92 79 17 vhcurveto
          -114 26 86 -57 93 hhcurveto
          -2 callgsubr
          hvcurveto
          -71 callsubr
          -218 -232 rmoveto
          -49 -24 40 50 75 58 65 158 2 hvcurveto
          -92 -3 -37 -140 -103 hhcurveto
          352 442 1 callsubr
        </CharString>
        <CharString name="agrave">
          -88 callgsubr
          -17 708 -89 callgsubr
        </CharString>
        <CharString name="ampersand">
          331 -10 22 9 -21 699 -20 hstemhm
          30 80 119 72 162 63 -9 44 hintmask 10111010
          774 12 rmoveto
          -87 2 -117 73 -63 52 32 60 20 79 2 100 rrcurveto
          45 3 126 17 47 vvcurveto
          13 -5 12 -18 -12 -16 -8 -13 -18 vhcurveto
          -20 -28 -41 -26 -57 hhcurveto
          -82 -61 22 18 -34 hvcurveto
          hintmask 10111100
          128 5 38 73 64 vvcurveto
          63 -50 51 -73 -104 -70 -86 -111 -25 3 -24 4 -23 vhcurveto
          -108 -42 -98 -88 -106 vvcurveto
          -126 80 -78 142 83 79 28 67 57 vhcurveto
          hintmask 01111100
          60 -47 58 -30 36 -8 rrcurveto
          151 hlineto
          hintmask 10111100
          -509 20 rmoveto
          -83 -74 58 115 98 42 75 87 49 hvcurveto
          30 -126 88 -109 89 -75 rrcurveto
          -61 -41 -59 -24 -79 hhcurveto
          34 481 rmoveto
          114 43 66 53 42 24 -46 -60 -66 -49 -57 -67 vhcurveto
          -9 vlineto
          hintmask 10111010
          36 -28 53 -29 81 -7 -1 -77 -13 -75 -26 -62 rrcurveto
          -131 122 -45 139 75 vvcurveto
          endchar
        </CharString>
        <CharString name="apple">
          508 -114 101 -89 89 -76 92 12 -21 83 40 243 57 76 93 -77 77 -77 99 hstemhm
          120 100 -88 88 -76 91 77 74 191 75 75 93 -76 76 -76 88 48 callgsubr
          576 -89 rmoveto
          1 3 4 0 3 8 7 -1 8 hhcurveto
          26 2 19 10 17 hvcurveto
          15 8 21 1 13 9 13 9 5 22 12 12 10 10 16 1 9 11 11 13 -1 24 8 14 rrcurveto
          10 17 24 1 28 10 -2 11 11 vvcurveto
          25 22 3 3 20 vhcurveto
          hintmask 100111100100110010000000
          14 -11 15 15 13 11 12 14 22 -24 14 25 vvcurveto
          27 callsubr
          8 1 8 9 vvcurveto
          28 -25 3 -11 18 vhcurveto
          -6 10 5 22 -6 10 -11 19 -26 4 -14 13 -12 12 2 18 -13 9 -14 10 -16 -3 -15 8 rrcurveto
          10 -19 -2 26 -27 -10 -10 -3 -8 hhcurveto
          hintmask 100111001001111000000000
          -24 -7 25 -26 -14 -17 -12 -14 -13 -18 12 -13 -22 -8 -23 -25 -9 -9 2 -8 hhcurveto
          -25 -1 -7 -28 -17 -9 -16 -8 -22 2 -13 -11 -11 -10 -4 -21 -10 -10 -11 -11 -21 0 -8 -13 -7 -11 3 -21 -7 -11 rrcurveto
          -10 -17 -25 -6 -25 -8 1 -9 -8 vvcurveto
          27 callsubr
          -19 -25 -21 -21 vvcurveto
          hintmask 100111100010111000000000
          -15 12 -10 -17 vvcurveto
          48 callgsubr
          -15 -12 -15 -14 -21 25 -15 -19 -8 -3 -8 -9 vvcurveto
          -26 26 -11 8 -12 vhcurveto
          11 -18 -7 -11 11 -18 10 -16 16 3 13 -11 13 -11 -1 -24 18 -11 16 -10 7 9 23 -12 rrcurveto
          -7 13 12 -29 26 7 9 2 8 hhcurveto
          27 callsubr
          24 11 -25 20 hhcurveto
          hintmask 010111100100111000000000
          15 15 12 16 15 16 -10 15 hhcurveto
          48 callgsubr
          17 13 18 5 18 hvcurveto
          -26 92 rmoveto
          27 callsubr
          -3 -13 -10 -13 -12 -11 -11 7 -11 -12 -12 -9 -12 hhcurveto
          hintmask 001011100001111000000000
          2 -14 -7 16 -19 -5 -5 -1 -5 hhcurveto
          -19 -7 21 5 -11 hvcurveto
          -17 9 -5 -8 -11 8 -13 8 1 18 -10 8 -9 8 -12 -2 -7 11 -8 13 5 9 -8 13 rrcurveto
          -5 9 -20 7 19 5 2 6 5 vvcurveto
          27 callsubr
          15 -17 11 15 11 8 11 11 12 -8 7 11 16 17 14 16 5 -1 6 5 vvcurveto
          19 19 4 7 13 vhcurveto
          5 8 -2 15 5 8 7 9 14 0 8 8 8 8 2 15 9 7 9 8 16 -2 11 6 rrcurveto
          6 13 4 21 19 6 5 -1 6 hhcurveto
          hintmask 100111010100111000000000
          19 7 17 16 10 12 -9 10 10 12 9 11 19 3 -18 19 hhcurveto
          27 callsubr
          6 7 2 7 hhcurveto
          20 1 -19 -7 13 hvcurveto
          12 -7 11 4 10 -8 10 -7 -2 -13 9 -8 10 -10 19 -3 8 -13 4 -8 -3 -15 4 -8 rrcurveto
          8 -14 18 -1 -21 -6 -1 -6 -5 vvcurveto
          hintmask 100111100100110100000000
          -18 18 -11 -16 -9 -8 -10 -9 -11 8 -11 -10 vvcurveto
          -3 -14 -15 -3 -19 vvcurveto
          48 callgsubr
          -6 1 -7 -7 vvcurveto
          -24 -16 3 -8 -14 vhcurveto
          -6 -11 0 -17 -7 -10 -7 -8 -12 0 -7 -8 -8 -8 -4 -15 -10 -7 -9 -7 -16 -1 -10 -6 rrcurveto
          -5 -12 -1 -16 -20 -5 -5 1 -5 hhcurveto
          -3 -3 0 -1 -3 hvcurveto
          -68 414 rmoveto
          -94 -76 -76 -94 -94 76 -76 94 94 76 76 94 94 -76 76 -94 hvcurveto
          42 -125 rmoveto
          -175 -85 175 -53 68 191 -68 vlineto
          endchar
        </CharString>
        <CharString name="approxequal">
          171 48 20 48 64 48 20 48 hstem
          452 53 callgsubr
          -66 callsubr
          228 vmoveto
          -66 callsubr
          endchar
        </CharString>
        <CharString name="aring">
          -50 callgsubr
          61 38 121 39 hstemhm
          50 76 24 54 89 55 -6 70 hintmask 0101111110100000
          -100 callgsubr
          hintmask 0011111111000000
          -70 callsubr
          hintmask 0101111110100000
          -87 callgsubr
          hintmask 1001111110100000
          -75 callsubr
          50 721 10 callgsubr
          hvcurveto
          hintmask 1001111111000000
          -61 callgsubr
        </CharString>
        <CharString name="asciicircum">
          517 -21 204 -20 hstem
          251 8 callsubr
          -120 -204 rlineto
          48 hlineto
          96 167 96 -167 rlineto
          48 hlineto
          -120 204 rlineto
          endchar
        </CharString>
        <CharString name="asciitilde">
          261 48 20 48 hstem
          452 343 rmoveto
          -66 callsubr
          endchar
        </CharString>
        <CharString name="asterisk">
          5 353 -21 403 -20 hstem
          193 73 vstem
          393 481 rmoveto
          -35 21 6 -23 -124 54 124 55 -6 -22 35 21 rrcurveto
          10 6 6 10 12 vvcurveto
          20 -17 18 -19 -5 -5 -1 -3 -5 vhcurveto
          -36 -20 22 -7 -109 -80 rrcurveto
          14 135 17 -17 41 vvcurveto
          19 -16 15 -21 -21 -15 -15 -19 -41 18 17 14 -135 vhcurveto
          -110 80 22 7 -35 20 rrcurveto
          3 -5 -6 1 -5 hhcurveto
          -18 -18 -17 -21 -11 6 -11 10 -6 hvcurveto
          36 -21 -6 22 124 -55 -124 -54 5 24 -35 -22 rrcurveto
          -10 -7 -6 -10 -12 vvcurveto
          -21 19 -17 16 6 6 2 3 5 vhcurveto
          35 21 -22 6 110 79 rrcurveto
          -14 -134 -18 16 -42 vvcurveto
          -18 15 -15 21 21 16 15 18 42 -17 -16 -14 134 vhcurveto
          109 -79 -22 -6 36 -21 rrcurveto
          -3 5 5 -2 6 hhcurveto
          18 17 19 20 11 -6 11 -10 6 hvcurveto
          endchar
        </CharString>
        <CharString name="at">
          338 -66 29 145 29 314 25 120 26 hstem
          80 75 84 78 173 70 vstem
          559 108 rmoveto
          76 108 77 142 190 -130 105 -189 -190 -154 -155 -189 -190 154 -154 190 82 76 24 23 40 hvcurveto
          26 vlineto
          -20 -39 -71 -24 -79 hhcurveto
          -165 -113 133 179 180 113 141 165 162 128 -91 -178 1 hvcurveto
          -110 -81 -80 -55 -16 -12 13 48 50 23 123 29 100 vhcurveto
          0 -46 5 -33 -205 -89 -155 -85 -76 39 -52 78 79 43 72 53 18 vhcurveto
          5 hlineto
          -8 -24 -3 -16 -14 vvcurveto
          -40 16 -31 53 vhcurveto
          -181 29 rmoveto
          -39 -22 40 48 75 57 151 155 hvcurveto
          -68 -8 -41 -246 -102 hhcurveto
          endchar
        </CharString>
        <CharString name="atilde">
          46 callsubr
          184 22 145 25 -25 67 3 -20 3 callgsubr
          hintmask 1011101110000000
          -52 callgsubr
          vhcurveto
          hintmask 1011010110000000
          -47 callgsubr
          hvcurveto
          -91 callsubr
          -70 callsubr
          -87 callgsubr
          -213 -201 rmoveto
          hintmask 1011101110000000
          -58 callsubr
          hintmask 0111010110000000
          -30 callsubr
          176 677 -82 callsubr
        </CharString>
        <CharString name="b">
          101 -10 29 433 31 229 23 hstem
          106 70 264 76 vstem
          329 30 callgsubr
          -90 -42 -66 -65 -21 hvcurveto
          383 vlineto
          -84 -72 -16 callgsubr
          80 4 -10 -144 hvcurveto
          -541 31 callsubr
          116 -50 132 -137 vhcurveto
          -54 -464 -23 callsubr
        </CharString>
        <CharString name="backslash">
          44 callsubr
          76 670 rmoveto
          -61 hlineto
          212 -755 rlineto
          61 hlineto
          endchar
        </CharString>
        <CharString name="bar">
          15 callsubr
          720 rmoveto
          -61 -914 61 hlineto
          endchar
        </CharString>
        <CharString name="barra">
          15 326 50 hstem
          65 326 rmoveto
          340 50 -340 hlineto
          endchar
        </CharString>
        <CharString name="braceleft">
          32 callgsubr
          117 75 cntrmask 11100000
          55 306 rmoveto
          51 -3 11 -33 -156 vvcurveto
          -115 27 -101 151 vhcurveto
          27 vlineto
          -74 -29 77 92 152 -16 63 -67 10 hvcurveto
          67 10 16 63 152 vvcurveto
          92 29 77 74 vhcurveto
          27 vlineto
          -151 -27 -101 -115 -156 -11 -33 -51 -3 hvcurveto
          endchar
        </CharString>
        <CharString name="braceright">
          32 callgsubr
          138 75 cntrmask 11100000
          275 332 rmoveto
          -51 3 -11 33 156 vvcurveto
          115 -27 101 -151 vhcurveto
          -27 vlineto
          74 29 -77 -92 -152 16 -63 67 -10 hvcurveto
          -67 -10 -16 -63 -152 vvcurveto
          -92 -29 -77 -74 vhcurveto
          -27 vlineto
          151 27 101 115 156 11 33 51 3 hvcurveto
          endchar
        </CharString>
        <CharString name="bracketleft">
          45 callgsubr
          75 74 vstem
          75 -93 rmoveto
          147 22 -73 781 73 22 -147 hlineto
          endchar
        </CharString>
        <CharString name="bracketright">
          45 callgsubr
          98 74 vstem
          172 732 rmoveto
          -147 -22 73 -781 -73 -22 147 hlineto
          endchar
        </CharString>
        <CharString name="breve">
          -79 574 67 78 -20 hstem
          298 719 -32 callsubr
        </CharString>
        <CharString name="breve.case">
          -79 724 67 78 -20 hstem
          298 869 -32 callsubr
        </CharString>
        <CharString name="brokenbar">
          15 callsubr
          147 rmoveto
          -61 -341 61 hlineto
          914 vmoveto
          -61 -341 61 hlineto
          endchar
        </CharString>
        <CharString name="bullet">
          -103 288 -21 154 -20 hstem
          176 421 rmoveto
          -41 -35 -34 -44 -42 35 -34 41 43 33 34 42 44 -33 34 -43 hvcurveto
          endchar
        </CharString>
        <CharString name="c">
          -5 -10 29 349 115 -20 20 hstemhm
          40 76 hintmask 10110000
          410 99 rmoveto
          5 callgsubr
          hintmask 11010000
          92 -25 -95 59 49 callgsubr
          53 -83 28 -81 -148 -73 -25 callgsubr
          -163 104 -83 110 70 49 callsubr
          endchar
        </CharString>
        <CharString name="caron">
          -79 595 34 callgsubr
          70 725 -79 callgsubr
        </CharString>
        <CharString name="caron.case">
          -79 753 34 callgsubr
          70 883 -79 callgsubr
        </CharString>
        <CharString name="ccedilla">
          -5 47 callgsubr
          377 115 -20 20 hstemhm
          40 76 162 60 hintmask 10110110
          183 -68 callsubr
          19 56 rlineto
          hintmask 11001110
          4 5 -1 4 hhcurveto
          70 49 callsubr
          -15 8 rlineto
          5 callgsubr
          hintmask 11010110
          92 -25 -95 59 49 callgsubr
          53 -83 28 -81 -148 -73 -25 callgsubr
          -142 78 -81 93 -18 hvcurveto
          endchar
        </CharString>
        <CharString name="cedilla">
          -5 -258 34 224 -20 hstem
          285 60 vstem
          190 -68 callsubr
          23 65 rlineto
          -32 hlineto
          endchar
        </CharString>
        <CharString name="cent">
          -49 -21 145 29 464 -21 166 -20 hstem
          90 76 vstem
          248 -70 rmoveto
          36 hlineto
          12 145 rlineto
          78 49 callsubr
          -15 8 rlineto
          -57 -30 -56 -23 -55 hhcurveto
          -7 -7 0 1 -6 hvcurveto
          37 440 rlineto
          -15 64 -15 -77 53 49 callgsubr
          47 -65 27 -72 6 hvcurveto
          13 146 rlineto
          -36 hlineto
          -13 -145 rlineto
          -142 -4 -70 -111 -132 vvcurveto
          -142 78 -81 93 -19 vhcurveto
          -95 254 rmoveto
          115 42 92 93 7 vhcurveto
          -37 -431 rlineto
          -56 25 -42 68 124 vvcurveto
          endchar
        </CharString>
        <CharString name="circumflex">
          -79 593 34 callgsubr
          188 649 -102 callsubr
        </CharString>
        <CharString name="circumflex.case">
          -79 753 34 callgsubr
          188 809 -102 callsubr
        </CharString>
        <CharString name="colon">
          -282 -10 106 261 106 hstem
          86 96 2 callgsubr
          367 vmoveto
          -78 callsubr
        </CharString>
        <CharString name="comma">
          -53 callgsubr
        </CharString>
        <CharString name="copyright">
          360 -10 37 100 24 394 20 103 37 hstem
          50 37 114 68 459 37 vstem
          407 705 rmoveto
          -197 -160 -160 -198 -197 160 -160 197 199 24 callgsubr
          -199 hvcurveto
          -678 vmoveto
          -176 24 callsubr
          176 177 26 callgsubr
          -177 hvcurveto
          161 174 rmoveto
          -38 -51 -46 -12 -43 hhcurveto
          -90 -69 69 127 108 48 90 97 71 58 -34 -83 14 hvcurveto
          8 -1 rlineto
          99 vlineto
          19 -26 -60 20 -65 hhcurveto
          -135 -78 -98 -120 -144 105 -76 112 56 57 18 38 47 hvcurveto
          endchar
        </CharString>
        <CharString name="currency">
          155 -21 43 44 199 44 40 -20 hstem
          131 44 199 44 vstem
          124 134 rmoveto
          67 67 rlineto
          -16 22 28 -8 33 hhcurveto
          33 29 9 15 22 hvcurveto
          68 -67 34 34 -68 67 rlineto
          17 24 9 29 32 vvcurveto
          31 -8 29 -16 24 vhcurveto
          66 66 -34 34 -66 -66 rlineto
          16 -23 -29 10 -34 hhcurveto
          -33 -29 -10 -16 -23 hvcurveto
          -65 66 -34 -34 66 -66 rlineto
          -16 -24 -9 -29 -31 vvcurveto
          -32 9 -29 17 -24 vhcurveto
          -67 -67 rlineto
          184 252 rmoveto
          1 callgsubr
        </CharString>
        <CharString name="d">
          107 -39 callgsubr
          457 31 229 23 hstemhm
          40 76 265 70 hintmask 00111110
          378 111 rmoveto
          -55 7 -36 6 -25 -65 callgsubr
          513 vlineto
          -84 -72 -16 callgsubr
          79 5 -10 -136 hvcurveto
          -95 vlineto
          7 -24 -30 5 -37 hhcurveto
          0 callgsubr
          hintmask 10011110
          -140 -90 -27 callgsubr
        </CharString>
        <CharString name="dagger">
          103 -143 -21 589 40 callsubr
          86 514 rmoveto
          13 callgsubr
          -177 rlineto
          -25 23 -420 22 18 26 420 25 vhcurveto
          -36 177 -52 callsubr
          endchar
        </CharString>
        <CharString name="daggerdbl">
          103 -143 -21 221 89 279 40 callsubr
          323 285 rmoveto
          -36 173 -52 callsubr
          13 callgsubr
          -173 36 -173 rlineto
          12 -49 -98 22 -37 hhcurveto
          -25 -21 -13 -32 -28 21 -16 25 37 97 23 10 50 hvcurveto
          -11 -43 -25 -124 -41 vvcurveto
          -25 13 -21 32 28 16 21 25 41 -26 124 -10 43 vhcurveto
          16 callgsubr
          16 28 32 -21 13 -25 -38 -97 -23 -11 -50 hvcurveto
          endchar
        </CharString>
        <CharString name="degree">
          -56 463 40 199 40 hstem
          60 40 199 40 vstem
          199 742 rmoveto
          -84 -55 -63 -77 -76 55 -63 84 86 54 63 76 77 -54 63 -86 hvcurveto
          -40 vmoveto
          1 callgsubr
        </CharString>
        <CharString name="dieresis">
          -42 589 52 callsubr
          49 643 -107 callgsubr
        </CharString>
        <CharString name="dieresis.case">
          -42 739 52 callsubr
          49 793 -107 callgsubr
        </CharString>
        <CharString name="divide">
          89 106 100 48 100 106 hstem
          cntrmask 11100000
          17 callgsubr
          48 44 callgsubr
          177 -148 2 callgsubr
          354 vmoveto
          -78 callsubr
        </CharString>
        <CharString name="dollar">
          -49 -21 60 27 610 26 60 -20 hstemhm
          87 23 -23 62 257 31 -31 62 hintmask 11111001
          208 -70 rmoveto
          36 hlineto
          5 60 rlineto
          115 104 50 122 110 -99 53 -87 49 hvcurveto
          21 249 rlineto
          55 -14 52 -47 -102 vvcurveto
          13 -3 rlineto
          hintmask 11111010
          7 45 7 55 58 vvcurveto
          -33 16 -49 15 -49 5 5 62 rcurveline
          -36 hlineto
          -5 -60 rlineto
          -103 -80 -61 -91 -97 75 -52 78 -46 hvcurveto
          -24 -283 rlineto
          -60 18 -46 55 99 vvcurveto
          -14 2 rlineto
          -5 -45 -6 -46 -58 vvcurveto
          32 -30 50 -18 46 -6 rrcurveto
          38 23 rmoveto
          23 269 rlineto
          70 -41 62 -40 -66 vvcurveto
          -94 -68 -28 -87 vhcurveto
          hintmask 11110110
          -102 503 rmoveto
          64 47 42 71 1 vhcurveto
          -20 -234 rlineto
          -55 33 -43 36 58 vvcurveto
          endchar
        </CharString>
        <CharString name="dotaccent">
          -138 586 114 hstem
          106 -5 callsubr
          endchar
        </CharString>
        <CharString name="dotaccent.case">
          -138 736 114 hstem
          106 793 -53 callsubr
          endchar
        </CharString>
        <CharString name="dotlessi">
          -8 callgsubr
          -95 callgsubr
          endchar
        </CharString>
        <CharString name="e">
          39 -30 callgsubr
          -102 callgsubr
          endchar
        </CharString>
        <CharString name="eacute">
          -75 callgsubr
          73 266 -94 callsubr
        </CharString>
        <CharString name="ecircumflex">
          39 -30 callgsubr
          240 -20 -102 callgsubr
          -3 186 -102 callsubr
        </CharString>
        <CharString name="edieresis">
          39 -30 callgsubr
          106 108 -102 callgsubr
          -161 180 -107 callgsubr
        </CharString>
        <CharString name="egrave">
          -75 callgsubr
          -70 266 -89 callgsubr
        </CharString>
        <CharString name="eight">
          -10 30 607 26 hstemhm
          66 74 -53 53 -53 74 228 74 -54 74 hintmask 11010010
          hintmask 11001100
          483 165 rmoveto
          101 -80 49 -77 22 vhcurveto
          4 vlineto
          74 30 63 44 87 vvcurveto
          98 -86 53 -103 vhcurveto
          hintmask 11100010
          -104 -83 -53 -98 -85 68 -56 71 -23 hvcurveto
          -4 vlineto
          -81 -29 -79 -42 -98 vvcurveto
          -106 86 -69 122 124 85 69 106 vhcurveto
          -322 336 rmoveto
          72 44 54 69 vhcurveto
          hintmask 11010100
          67 48 -50 -76 -91 -69 -46 -24 -10 hvcurveto
          -62 9 -73 48 90 vvcurveto
          248 -338 rmoveto
          -87 -58 -56 -76 vhcurveto
          hintmask 11100010
          -71 -64 56 89 99 82 48 27 10 hvcurveto
          74 -9 86 -53 -97 vvcurveto
          endchar
        </CharString>
        <CharString name="eightinferior">
          -65 -206 26 352 23 hstemhm
          74 48 -48 61 118 61 -49 61 hintmask 11100100
          326 -98 rmoveto
          55 -46 32 -42 16 vhcurveto
          42 21 34 26 50 vvcurveto
          hintmask 11011000
          61 -56 32 -65 -65 -54 -32 -61 -48 36 -33 42 -16 vhcurveto
          -48 -20 -41 -27 -56 vvcurveto
          -65 53 -43 77 79 54 43 65 vhcurveto
          -191 200 rmoveto
          hintmask 11100100
          40 22 30 36 36 24 -28 -42 vhcurveto
          hintmask 11101000
          -51 -34 -27 -14 -6 vhcurveto
          -35 5 -35 28 51 vvcurveto
          hintmask 11100100
          130 -201 rmoveto
          -50 -30 -31 -41 -38 -34 31 51 51 41 30 17 8 vhcurveto
          42 -6 43 -30 -54 vvcurveto
          endchar
        </CharString>
        <CharString name="ellipsis">
          64 -10 102 hstem
          86 92 rmoveto
          -31 callgsubr
          173 hmoveto
          -31 callgsubr
          173 hmoveto
          -31 callgsubr
          endchar
        </CharString>
        <CharString name="emdash">
          519 277 50 hstem
          277 vmoveto
          973 50 -973 hlineto
          endchar
        </CharString>
        <CharString name="endash">
          372 277 50 hstem
          277 vmoveto
          827 50 -827 hlineto
          endchar
        </CharString>
        <CharString name="equal">
          205 48 132 48 hstem
          98 385 rmoveto
          354 48 44 callgsubr
          -228 vmoveto
          2 callsubr
        </CharString>
        <CharString name="eslash">
          -96 327 -21 177 -20 hstem
          47 306 rmoveto
          282 144 -17 33 -282 -144 rlineto
          endchar
        </CharString>
        <CharString name="eth">
          85 -10 20 443 20 237 35 hstem
          40 76 302 74 vstem
          249 532 rmoveto
          120 61 21 -45 14 -58 8 -70 rlinecurve
          33 -38 -53 20 -59 hhcurveto
          -141 -81 -102 -135 -62 callgsubr
          178 137 -27 118 -48 84 hvcurveto
          114 58 -17 33 -117 -60 rlineto
          61 -43 -57 35 -67 hhcurveto
          -63 -46 -20 -58 -47 hvcurveto
          20 -19 rlineto
          41 39 31 21 57 hhcurveto
          50 46 -29 -55 34 hvcurveto
          -119 -61 rlineto
          36 -555 -54 callsubr
          91 101 71 84 -62 -135 -135 -48 -111 -102 hvcurveto
          endchar
        </CharString>
        <CharString name="exclam">
          -211 -10 106 613 -20 hstem
          122 709 rmoveto
          -32 -12 -24 -24 hvcurveto
          -128 32 -213 -145 vvcurveto
          25 hlineto
          145 32 213 128 vvcurveto
          24 -12 24 -33 vhcurveto
          -613 vmoveto
          -78 callsubr
        </CharString>
        <CharString name="exclamdown">
          -211 -215 -21 613 106 hstem
          122 -236 rmoveto
          33 12 24 24 hvcurveto
          128 -32 213 145 vvcurveto
          -25 hlineto
          -145 -32 -213 -128 vvcurveto
          -24 12 -24 32 vhcurveto
          613 vmoveto
          30 23 23 31 29 -23 23 -30 -28 -24 -23 -29 -31 24 -23 28 hvcurveto
          endchar
        </CharString>
        <CharString name="f">
          -99 -9 callgsubr
          vstem
          204 451 rmoveto
          132 22 -132 47 hlineto
          121 10 76 74 vhcurveto
          73 -19 -101 65 hhcurveto
          22 17 17 20 50 -82 42 -66 -79 -85 -36 -236 -21 callgsubr
          endchar
        </CharString>
        <CharString name="f_b">
          441 -10 29 2 -21 452 31 -10 -20 264 28 hstemhm
          134 29 callsubr
          264 76 hintmask 10011111
          32 callsubr
          62 64 -48 -82 vhcurveto
          -570 31 callsubr
          vhcurveto
          hintmask 10101111
          116 -50 132 -137 -90 -42 -66 -65 -21 vhcurveto
          393 -15 vlineto
          -37 callsubr
          hintmask 01011111
          -64 callsubr
          vlineto
          hintmask 10101111
          279 -454 -23 callsubr
        </CharString>
        <CharString name="f_k">
          460 -9 callgsubr
          242 70 vstem
          32 callsubr
          60 66 -46 -78 vhcurveto
          -419 -51 callsubr
          -32 callgsubr
          476 -15 vlineto
          -56 callgsubr
          vlineto
          endchar
        </CharString>
        <CharString name="fi">
          175 -16 callsubr
          10 -20 256 26 hstemhm
          134 70 240 70 hintmask 11011100
          346 451 rmoveto
          92 6 -19 -93 callsubr
          hintmask 10111100
          318 vlineto
          hintmask 11011100
          -70 -129 -10 -111 hhcurveto
          67 vlineto
          121 44 58 78 vhcurveto
          86 -14 -124 69 hhcurveto
          25 21 20 24 65 -114 41 -64 -123 -78 -67 -205 -21 callgsubr
          225 vlineto
          endchar
        </CharString>
        <CharString name="five">
          -10 37 312 38 198 48 73 -20 hstem
          115 36 252 74 vstem
          477 189 rmoveto
          134 -100 54 -118 -37 -39 -5 -10 -38 vhcurveto
          12 213 rlineto
          292 121 -12 hlineto
          -57 -84 -4 -230 -12 vhcurveto
          -16 -277 20 -20 rlineto
          9 36 36 4 32 hhcurveto
          100 72 -46 -118 -18 callgsubr
          hvcurveto
          endchar
        </CharString>
        <CharString name="fiveinferior">
          -65 -206 30 177 30 110 37 43 -20 hstem
          91 37 134 60 vstem
          322 -84 rmoveto
          83 -64 32 -74 -20 -19 -1 -5 -20 vhcurveto
          7 116 rlineto
          173 80 -23 hlineto
          -34 -49 -2 -137 -7 vhcurveto
          -10 -169 16 -16 rlineto
          6 25 22 2 19 hhcurveto
          55 39 -26 -67 -53 -42 -31 -46 -27 -37 11 28 -25 hvcurveto
          -22 -19 rlineto
          -37 30 48 -13 40 hhcurveto
          71 70 50 72 hvcurveto
          endchar
        </CharString>
        <CharString name="fl">
          178 -9 callgsubr
          242 70 vstem
          516 745 rmoveto
          -15 hlineto
          -56 callgsubr
          -132 104 vlineto
          97 57 43 59 60 66 -46 -78 vhcurveto
          -419 -44 callgsubr
          endchar
        </CharString>
        <CharString name="florin">
          -184 56 -56 87 548 22 158 114 -28 28 hstemhm
          252 70 hintmask 10110100
          252 70 rmoveto
          -133 -16 -65 -68 vhcurveto
          hintmask 01101100
          -5 callgsubr
          319 132 22 -132 47 vlineto
          121 10 76 74 vhcurveto
          hintmask 10110100
          73 -27 -86 65 hhcurveto
          22 17 17 20 61 -83 16 -43 -112 -66 -77 -173 hvcurveto
          -22 -92 -22 92 vlineto
          endchar
        </CharString>
        <CharString name="four">
          21 -21 140 30 484 -20 hstem
          330 70 vstem
          212 12 rmoveto
          -2 -12 rlineto
          310 -91 callgsubr
          -91 -22 14 114 -4 hvcurveto
          123 30 -124 479 hlineto
          -29 5 -338 -483 rlineto
          -31 296 vlineto
          -114 -5 -21 -14 -91 hhcurveto
          118 529 rmoveto
          -315 vlineto
          -21 0 -18 -1 -17 vhcurveto
          -259 hlineto
          endchar
        </CharString>
        <CharString name="fourinferior">
          -65 -200 109 -26 26 287 -20 hstemhm
          219 57 hintmask 10110000
          219 103 -13 callgsubr
          -1 15 rlineto
          hintmask 01110000
          -28 callgsubr
        </CharString>
        <CharString name="fraction">
          -102 -19 -21 723 -20 hstem
          -40 vmoveto
          -38 callsubr
          endchar
        </CharString>
        <CharString name="g">
          43 -284 22 217 60 119 26 298 25 103 -20 hstemhm
          14 70 -31 46 -46 73 226 73 -37 76 -51 70 hintmask 1111110010000000
          425 312 rmoveto
          44 -17 38 -27 30 vhcurveto
          hintmask 1111101001000000
          45 35 38 47 39 vvcurveto
          27 -19 14 -19 -19 -19 -14 -27 vhcurveto
          -15 6 -19 -17 vvcurveto
          -17 -8 -24 -17 -17 vhcurveto
          29 -33 -46 18 -51 hhcurveto
          -103 -83 -72 -99 -57 28 -51 43 -33 hvcurveto
          -43 -28 -32 -48 -44 vvcurveto
          -38 16 -35 42 -17 vhcurveto
          hintmask 1111110000100000
          -56 -18 -37 -54 -51 vvcurveto
          -74 82 -48 120 163 104 88 91 117 -134 3 -171 vhcurveto
          hintmask 1111101010000000
          -48 -31 26 38 26 12 28 30 27 hvcurveto
          -17 28 34 -9 36 hhcurveto
          104 82 80 98 hvcurveto
          -289 -357 rmoveto
          hintmask 1111110000100000
          217 60 -13 -71 -74 -87 -59 -99 -86 -57 44 66 51 30 43 22 13 hvcurveto
          103 205 rmoveto
          hintmask 1111100110000000
          -76 -37 67 85 85 37 61 76 76 37 -61 -85 -85 -37 -67 -76 hvcurveto
          endchar
        </CharString>
        <CharString name="germandbls">
          173 11 -21 31 -21 695 40 hstemhm
          126 70 95 68 62 69 34 76 hintmask 01111110
          359 429 rmoveto
          61 131 10 110 vvcurveto
          90 -84 35 -78 -123 -79 -79 -162 vhcurveto
          -273 -11 callsubr
          -90 vhcurveto
          -2 -7 rlineto
          169 519 hlineto
          123 40 53 74 65 46 -23 -62 vhcurveto
          -103 -130 -5 -89 -144 233 43 -170 vvcurveto
          -54 -27 -69 -88 -65 -74 36 76 vhcurveto
          -10 -98 hlineto
          hintmask 10111110
          -15 23 53 -28 73 hhcurveto
          90 101 55 121 hvcurveto
          169 -241 -3 97 vvcurveto
          endchar
        </CharString>
        <CharString name="grave">
          -134 26 callsubr
          74 729 -89 callgsubr
        </CharString>
        <CharString name="grave.case">
          39 callsubr
          62 869 rmoveto
          -20 -19 -12 -23 -16 7 -19 36 -11 53 callsubr
          -56 11 25 -163 99 rlineto
          9 -14 -10 4 -11 hhcurveto
          endchar
        </CharString>
        <CharString name="greater">
          176 -21 328 -28 callsubr
          endchar
        </CharString>
        <CharString name="greaterequal">
          0 48 435 -28 callsubr
          -354 -295 rmoveto
          2 callsubr
        </CharString>
        <CharString name="guillemotleft">
          4 -42 callsubr
          170 hmoveto
          -24 32 -11 119 -155 vhcurveto
          28 21 -92 169 92 169 -28 21 rlineto
          -119 -155 -32 -11 -24 vvcurveto
          endchar
        </CharString>
        <CharString name="guillemotright">
          4 6 callsubr
          429 293 rmoveto
          -56 callsubr
          -170 hmoveto
          -56 callsubr
          endchar
        </CharString>
        <CharString name="guilsinglleft">
          -166 -42 callsubr
          endchar
        </CharString>
        <CharString name="guilsinglright">
          -166 6 callsubr
          259 293 rmoveto
          -56 callsubr
          endchar
        </CharString>
        <CharString name="h">
          170 35 callgsubr
          231 22 hstem
          126 29 callsubr
          vstem
          196 736 rmoveto
          -83 callgsubr
          -19 -195 hvcurveto
          -333 -90 callgsubr
          endchar
        </CharString>
        <CharString name="hungarumlaut">
          -35 26 callsubr
          50 584 -13 callsubr
          61 -117 -13 callsubr
          endchar
        </CharString>
        <CharString name="hyphen">
          -76 277 50 hstem
          35 277 rmoveto
          309 50 -309 hlineto
          endchar
        </CharString>
        <CharString name="i">
          -138 21 -21 461 22 103 114 11 callsubr
          vstem
          106 -35 callgsubr
          -29 -93 callsubr
          endchar
        </CharString>
        <CharString name="iacute">
          -59 callgsubr
          24 564 -94 callsubr
        </CharString>
        <CharString name="icircumflex">
          -8 callgsubr
          250 -20 -95 callgsubr
          -57 484 -102 callsubr
        </CharString>
        <CharString name="idieresis">
          -8 callgsubr
          116 108 -95 callgsubr
          -215 478 -107 callgsubr
        </CharString>
        <CharString name="igrave">
          -59 callgsubr
          -127 564 -89 callgsubr
        </CharString>
        <CharString name="infinity">
          315 143 43 270 43 hstem
          50 68 534 68 vstem
          118 321 rmoveto
          76 39 59 78 67 52 -67 -68 18 vhcurveto
          -68 -18 -52 -67 -67 hhcurveto
          -78 -39 59 76 hvcurveto
          267 -46 rmoveto
          -67 23 56 -65 85 hhcurveto
          98 73 79 99 99 -73 79 -98 -85 -56 -65 -67 -23 hvcurveto
          67 -23 -56 65 -85 hhcurveto
          -98 -73 -79 -99 -99 73 -79 98 85 56 65 67 23 hvcurveto
          267 46 rmoveto
          -76 -39 -59 -78 -67 -52 67 68 -18 vhcurveto
          68 18 52 67 67 hhcurveto
          78 39 -59 -76 hvcurveto
          endchar
        </CharString>
        <CharString name="integral">
          58 -184 56 -56 76 685 76 -56 56 hstemhm
          212 70 -54 54 hintmask 10011000
          298 399 rmoveto
          133 8 18 65 58 hhcurveto
          hintmask 10100100
          47 24 -20 24 hhcurveto
          16 17 11 21 26 -20 18 -36 -149 -67 -140 -176 -10 hvcurveto
          hintmask 10101000
          -16 -267 rlineto
          -133 -8 -18 -65 -58 hhcurveto
          hintmask 01101000
          -47 -24 20 -24 hhcurveto
          -16 -17 -11 -21 -26 20 -18 36 149 67 140 176 10 hvcurveto
          endchar
        </CharString>
        <CharString name="j">
          -172 -284 56 -56 87 658 22 103 114 hstemhm
          121 70 hintmask 10111000
          96 -35 callgsubr
          -19 -195 hvcurveto
          -277 vlineto
          -133 -16 -65 -68 vhcurveto
          hintmask 01111000
          -5 callgsubr
          endchar
        </CharString>
        <CharString name="k">
          67 21 -21 473 -20 54 callgsubr
          hstem
          113 70 vstem
          227 262 rmoveto
          -32 callgsubr
          466 vlineto
          -83 -75 -11 0 hvcurveto
          -36 callgsubr
          82 4 -10 -145 hvcurveto
          -383 -51 callsubr
          endchar
        </CharString>
        <CharString name="l">
          25 callsubr
          183 736 rmoveto
          14 callsubr
          -382 -44 callgsubr
          endchar
        </CharString>
        <CharString name="less">
          176 -21 328 -24 callgsubr
          endchar
        </CharString>
        <CharString name="lessequal">
          0 48 435 -24 callgsubr
          -343 vmoveto
          2 callsubr
        </CharString>
        <CharString name="logicalnot">
          163 -21 153 48 hstem
          404 48 vstem
          98 295 rmoveto
          306 -153 48 201 44 callgsubr
          endchar
        </CharString>
        <CharString name="lozenge">
          45 21 -21 643 -20 hstem
          409 281 rmoveto
          -126 -230 -174 312 124 229 rlineto
          229 -270 rmoveto
          -186 321 rlineto
          -44 hlineto
          -178 -321 186 -322 rlineto
          44 hlineto
          endchar
        </CharString>
        <CharString name="lslash">
          25 callsubr
          16 306 rmoveto
          97 49 rlineto
          -181 -44 callgsubr
          217 vlineto
          115 59 -17 33 -98 -50 rlineto
          303 vlineto
          14 callsubr
          -159 vlineto
          -114 -58 rlineto
          endchar
        </CharString>
        <CharString name="m">
          447 35 callgsubr
          11 callsubr
          222 70 222 70 cntrmask 00111000
          493 304 rmoveto
          127 -50 52 -96 -90 -46 -95 -84 -10 vhcurveto
          179 vlineto
          -84 -87 -11 0 hvcurveto
          -63 callsubr
          28 198 107 67 20 36 callsubr
          -75 vhcurveto
          -2 -12 rlineto
          235 -29 callsubr
          236 -49 callsubr
          -96 -90 -46 -95 -84 -10 vhcurveto
          endchar
        </CharString>
        <CharString name="macron">
          -44 609 63 hstem
          75 609 41 callgsubr
        </CharString>
        <CharString name="macron.case">
          -44 759 63 hstem
          75 759 41 callgsubr
        </CharString>
        <CharString name="minus">
          295 48 hstem
          98 295 rmoveto
          2 callsubr
        </CharString>
        <CharString name="mu">
          164 -258 -21 269 31 -5 -21 466 22 -19 callgsubr
          hintmask 11011100
          -58 callgsubr
          38 71 vhcurveto
          353 vlineto
          -114 -4 -27 -7 0 vvcurveto
          -66 callgsubr
          62 7 -15 callgsubr
          -392 vlineto
          -1 callsubr
          69 vlineto
          -18 22 28 -9 33 hhcurveto
          98 40 75 64 21 hvcurveto
          hintmask 10111100
          -1 callsubr
          261 vlineto
          -114 -4 -27 -7 0 vvcurveto
          -66 callgsubr
          62 7 -19 -177 hvcurveto
          endchar
        </CharString>
        <CharString name="multiply">
          177 -21 326 -20 hstem
          146 156 rmoveto
          129 129 129 -129 34 34 -129 129 129 129 -34 34 -129 -129 -129 129 -34 -34 129 -129 -129 -129 rlineto
          endchar
        </CharString>
        <CharString name="n">
          175 35 callgsubr
          hstem
          131 29 callsubr
          vstem
          201 30 callgsubr
          -84 -87 -11 0 hvcurveto
          2 -11 rlineto
          92 7 -19 -195 hvcurveto
          -80 -90 callgsubr
          endchar
        </CharString>
        <CharString name="nbspace">
          -205 endchar
        </CharString>
        <CharString name="nine">
          -10 37 249 35 313 29 hstem
          61 77 282 72 vstem
          226 27 rmoveto
          -57 -41 19 41 -39 hvcurveto
          -20 -19 rlineto
          -58 47 56 -20 63 hhcurveto
          149 108 138 211 224 -97 90 -119 -112 -103 -71 -124 -121 79 -61 104 36 40 7 15 40 hvcurveto
          -9 29 rlineto
          -11 -30 -29 -5 -26 hhcurveto
          -75 -53 46 96 106 44 65 94 72 72 -71 -189 -223 -77 -114 -117 hvcurveto
          endchar
        </CharString>
        <CharString name="nineinferior">
          -65 -206 30 140 30 176 25 hstem
          60 61 151 59 vstem
          165 -176 rmoveto
          -30 -24 13 26 -27 hvcurveto
          -21 -19 rlineto
          -37 30 36 -13 41 hhcurveto
          93 68 84 127 136 -62 54 -74 -71 -64 -43 -76 -75 49 -37 66 25 27 5 10 26 hvcurveto
          -7 26 rlineto
          -7 -18 -19 -4 -17 hhcurveto
          -39 -32 21 58 60 23 37 51 39 38 -41 -110 -128 -42 -67 -65 hvcurveto
          endchar
        </CharString>
        <CharString name="notequal">
          23 callgsubr
          98 385 rmoveto
          178 hlineto
          -55 -132 rlineto
          -123 -48 103 hlineto
          -102 -245 rlineto
          51 hlineto
          102 245 rlineto
          200 48 -180 hlineto
          55 132 rlineto
          125 48 -105 hlineto
          105 250 rlineto
          -51 hlineto
          -105 -250 rlineto
          -198 hlineto
          endchar
        </CharString>
        <CharString name="ntilde">
          175 35 callgsubr
          145 -26 callsubr
          131 29 callsubr
          hintmask 11101110
          201 30 callgsubr
          -84 -87 -11 0 hvcurveto
          hintmask 11010110
          2 -11 rlineto
          92 7 -19 -195 hvcurveto
          -80 -90 callgsubr
          260 394 -82 callsubr
        </CharString>
        <CharString name="numbersign">
          269 23 callgsubr
          361 -40 rmoveto
          51 hlineto
          68 245 rlineto
          101 hlineto
          13 48 rlineto
          -100 hlineto
          37 132 rlineto
          100 hlineto
          13 48 rlineto
          -100 33 callgsubr
          -199 33 callgsubr
          -101 hlineto
          -13 -48 rlineto
          101 hlineto
          -37 -132 rlineto
          -100 hlineto
          -13 -48 rlineto
          99 hlineto
          -68 -245 rlineto
          51 hlineto
          68 245 rlineto
          199 hlineto
          -148 180 rmoveto
          199 hlineto
          -37 -132 rlineto
          -199 hlineto
          endchar
        </CharString>
        <CharString name="o">
          -8 callsubr
          -101 callsubr
          endchar
        </CharString>
        <CharString name="oacute">
          -70 callgsubr
          64 719 -94 callsubr
        </CharString>
        <CharString name="ocircumflex">
          -8 callsubr
          240 -20 -101 callsubr
          -2 639 -102 callsubr
        </CharString>
        <CharString name="odieresis">
          -8 callsubr
          106 108 -101 callsubr
          -160 633 -107 callgsubr
        </CharString>
        <CharString name="oe">
          415 -30 callgsubr
          hstem
          -11 callgsubr
          251 77 vstem
          820 -48 callsubr
          -79 -60 -40 -61 -35 vhcurveto
          61 -39 -65 40 -85 hhcurveto
          -37 callgsubr
          -135 87 -111 141 84 64 39 61 37 hvcurveto
          -67 41 69 -33 71 hhcurveto
          -2 callgsubr
          hvcurveto
          -48 callgsubr
          -80 -74 64 143 -3 hvcurveto
          10 vlineto
          10 vlineto
          7 vlineto
          -224 -243 -74 callgsubr
          hvcurveto
          -10 vlineto
          -120 -2 -47 -96 -99 hhcurveto
          358 453 1 callsubr
        </CharString>
        <CharString name="ogonek">
          -139 -192 44 168 -20 hstem
          50 55 vstem
          194 20 rmoveto
          -99 -17 -45 -59 -52 vvcurveto
          -45 35 -39 66 41 45 18 36 29 vhcurveto
          -18 20 rlineto
          -19 -21 -30 -11 -27 hhcurveto
          -35 -30 18 43 33 26 38 67 16 hvcurveto
          endchar
        </CharString>
        <CharString name="ograve">
          -70 callgsubr
          -69 719 -89 callgsubr
        </CharString>
        <CharString name="one">
          21 -21 654 -20 hstem
          262 70 vstem
          321 654 rmoveto
          -59 -41 -87 -37 -78 -35 8 -19 rcurveline
          21 47 36 15 30 hhcurveto
          27 17 -17 -51 hvcurveto
          -264 -11 callsubr
          -111 -92 callgsubr
          310 -91 callgsubr
          -110 -43 callgsubr
          423 vlineto
          endchar
        </CharString>
        <CharString name="onehalf">
          50 callgsubr
          32 340 23 288 -20 hstem
          167 58 474 60 vstem
          236 -41 callgsubr
          -327 -30 -92 callsubr
          534 -348 -18 callsubr
          -69 callgsubr
        </CharString>
        <CharString name="oneinferior">
          -65 -179 33 callsubr
          197 -92 callsubr
          endchar
        </CharString>
        <CharString name="onequarter">
          50 callgsubr
          109 -26 26 574 -20 hstemhm
          167 58 442 57 hintmask 11011100
          256 -41 callgsubr
          -347 -30 -92 callsubr
          442 -344 -13 callgsubr
          -1 15 rlineto
          hintmask 10111100
          -28 callgsubr
        </CharString>
        <CharString name="onesuperior">
          -65 332 33 callsubr
          708 -92 callsubr
          endchar
        </CharString>
        <CharString name="ordfeminine">
          -78 297 40 50 25 214 83 hstem
          41 61 127 58 vstem
          180 709 rmoveto
          -57 -63 -17 -37 -19 9 -10 19 hvcurveto
          40 -12 65 52 hhcurveto
          51 10 -39 -55 hvcurveto
          -21 vlineto
          -135 -3 -53 -41 -62 vvcurveto
          -52 36 -31 56 44 30 27 33 17 vhcurveto
          6 hlineto
          1 -20 3 -26 3 -10 rrcurveto
          63 45 34 0 hvcurveto
          -6 9 rlineto
          -8 -19 -7 -1 -7 hhcurveto
          -17 -2 25 89 hvcurveto
          65 vlineto
          72 -41 33 -66 vhcurveto
          -37 -297 rmoveto
          -28 -13 25 30 47 32 42 95 2 hvcurveto
          -72 -25 -74 -61 vhcurveto
          -98 -115 rmoveto
          279 40 -279 hlineto
          endchar
        </CharString>
        <CharString name="ordmasculine">
          -49 297 40 -40 107 305 -20 hstemhm
          51 60 182 61 hintmask 01111000
          199 709 rmoveto
          -94 -54 -73 -88 -88 58 -73 94 95 56 73 88 88 -59 73 -96 hvcurveto
          4 -305 rmoveto
          -60 -32 64 80 80 28 64 61 62 31 -64 -80 -80 -28 -64 -62 hvcurveto
          -139 -107 rmoveto
          279 hlineto
          hintmask 10111000
          40 -279 vlineto
          endchar
        </CharString>
        <CharString name="oslash">
          77 -38 -21 49 20 453 20 49 -3 callgsubr
          160 -59 rmoveto
          47 hlineto
          15 53 rlineto
          -2 14 16 -2 16 hhcurveto
          142 82 111 135 103 -51 89 -87 37 hvcurveto
          19 67 rlineto
          -48 hlineto
          -15 -54 rlineto
          3 -15 -16 2 -17 hhcurveto
          -37 callgsubr
          -104 51 -89 87 -36 hvcurveto
          -62 229 rmoveto
          126 46 101 101 14 14 -2 -4 13 vhcurveto
          -117 -419 rlineto
          -47 38 -24 74 86 vvcurveto
          152 -226 rmoveto
          -15 -13 2 4 -12 hvcurveto
          117 418 rlineto
          47 -39 24 -74 -85 vvcurveto
          -125 -46 -101 -102 vhcurveto
          endchar
        </CharString>
        <CharString name="otilde">
          -8 callsubr
          145 -26 callsubr
          -11 callgsubr
          hintmask 11101110
          262 30 callgsubr
          -37 callgsubr
          hvcurveto
          hintmask 11010110
          -77 callsubr
          vhcurveto
          -86 callgsubr
          124 688 -82 callsubr
        </CharString>
        <CharString name="p">
          38 callgsubr
          0 callsubr
          131 12 callsubr
          -422 -72 callgsubr
        </CharString>
        <CharString name="paragraph">
          178 -173 -21 739 45 hstem
          278 51 109 51 vstem
          576 590 rmoveto
          -298 hlineto
          -115 -94 -94 -115 -115 94 -94 115 hvcurveto
          -366 51 739 109 -739 51 739 87 vlineto
          endchar
        </CharString>
        <CharString name="parenleft">
          46 callgsubr
          15 74 vstem
          237 722 rmoveto
          -21 20 rlineto
          0 -201 -152 -271 vvcurveto
          -271 201 -151 0 vhcurveto
          21 20 rlineto
          0 -148 142 260 vvcurveto
          260 148 143 0 vhcurveto
          endchar
        </CharString>
        <CharString name="parenright">
          46 callgsubr
          169 74 vstem
          21 722 rmoveto
          0 148 -143 -260 vvcurveto
          -260 -148 -142 0 vhcurveto
          21 -20 rlineto
          0 201 151 271 vvcurveto
          271 -201 152 0 vhcurveto
          -21 -20 rlineto
          endchar
        </CharString>
        <CharString name="partialdiff">
          85 -10 20 443 20 246 26 hstemhm
          31 72 307 87 -65 65 hintmask 11111000
          217 10 rmoveto
          -78 -36 64 90 161 77 128 110 60 60 -47 -100 -156 -91 -140 -102 hvcurveto
          92 709 rmoveto
          hintmask 11110100
          84 39 -91 -155 -17 -1 -18 -1 -18 hvcurveto
          33 -32 -48 20 -57 hhcurveto
          -151 -111 -131 -160 -109 65 -83 118 227 56 282 168 183 -66 122 -121 -105 -82 -44 -51 -19 15 -16 21 hvcurveto
          49 10 104 91 hhcurveto
          endchar
        </CharString>
        <CharString name="percent">
          542 -19 -21 34 25 231 25 97 23 233 23 32 -20 hstem
          120 29 callgsubr
          185 -82 callgsubr
          endchar
        </CharString>
        <CharString name="period">
          -282 -10 106 hstem
          86 96 rmoveto
          -78 callsubr
        </CharString>
        <CharString name="periodcentered">
          -282 240 106 hstem
          86 346 rmoveto
          -78 callsubr
        </CharString>
        <CharString name="perthousand">
          822 -19 -21 34 25 231 25 97 23 233 23 32 -20 hstem
          120 29 callgsubr
          185 29 callgsubr
          64 -82 callgsubr
          350 376 -49 callgsubr
        </CharString>
        <CharString name="pi">
          133 -10 34 -3 -21 423 50 hstemhm
          110 72 196 72 hintmask 01111000
          30 423 rmoveto
          80 -423 72 423 196 -347 hlineto
          hintmask 10111000
          -59 27 -27 44 45 24 20 54 35 vhcurveto
          -15 10 rlineto
          -28 -18 -18 -22 -21 hhcurveto
          -21 -10 17 29 hvcurveto
          353 80 50 -500 vlineto
          endchar
        </CharString>
        <CharString name="plus">
          163 -21 153 -34 callsubr
          endchar
        </CharString>
        <CharString name="plusminus">
          0 48 247 -34 callsubr
          -343 vmoveto
          2 callsubr
        </CharString>
        <CharString name="product">
          145 -136 -21 750 50 hstem
          110 72 236 72 vstem
          30 593 rmoveto
          80 -750 72 750 236 -750 72 750 80 50 -540 hlineto
          endchar
        </CharString>
        <CharString name="q">
          90 -253 -21 264 31 431 31 hstem
          40 76 262 70 vstem
          290 30 callgsubr
          0 callgsubr
          -220 vlineto
          -138 -5 -15 -80 -92 callgsubr
          244 -91 callgsubr
          -81 -4 16 137 hvcurveto
          587 vlineto
          -30 -20 rlineto
          11 -26 -41 14 -61 hhcurveto
          -52 -462 -27 callgsubr
        </CharString>
        <CharString name="question">
          -92 -10 106 587 26 hstem
          88 47 143 69 vstem
          199 709 rmoveto
          -98 -81 -62 -50 -22 14 -14 16 hvcurveto
          63 -30 122 115 hhcurveto
          50 30 -26 -63 hvcurveto
          -122 -190 -73 -119 vvcurveto
          -39 20 -41 52 -45 vhcurveto
          18 19 rlineto
          -31 25 -12 24 25 89 212 122 123 vvcurveto
          87 -62 40 -86 vhcurveto
          -38 -613 rmoveto
          -78 callsubr
        </CharString>
        <CharString name="questiondown">
          -92 -236 26 587 106 hstem
          16 69 143 47 vstem
          164 -236 rmoveto
          98 81 62 50 22 -14 14 -16 hvcurveto
          -63 30 -122 -115 hhcurveto
          -50 -30 26 63 hvcurveto
          122 190 73 119 vvcurveto
          39 -20 41 -52 45 vhcurveto
          -18 -19 rlineto
          31 -25 12 -24 -25 -89 -212 -122 -123 vvcurveto
          -87 62 -40 86 vhcurveto
          38 613 rmoveto
          28 24 23 31 29 -24 23 -28 -30 -23 -23 -29 -31 23 -23 30 hvcurveto
          endchar
        </CharString>
        <CharString name="quotedbl">
          -160 499 -21 257 -20 hstem
          25 89 67 -21 callsubr
          172 hmoveto
          -45 callsubr
          endchar
        </CharString>
        <CharString name="quotedblbase">
          -107 -123 18 callgsubr
          105 46 120 46 vstem
          222 -144 -68 callgsubr
        </CharString>
        <CharString name="quotedblleft">
          -97 510 18 callgsubr
          25 46 120 -42 callgsubr
          151 19 -64 callgsubr
          endchar
        </CharString>
        <CharString name="quotedblright">
          -97 507 18 callgsubr
          121 46 120 46 vstem
          238 486 -68 callgsubr
        </CharString>
        <CharString name="quoteleft">
          -263 510 18 callgsubr
          25 -42 callgsubr
          endchar
        </CharString>
        <CharString name="quoteright">
          -263 507 18 callgsubr
          121 46 vstem
          72 486 -99 callgsubr
          endchar
        </CharString>
        <CharString name="quotesinglbase">
          -53 callgsubr
        </CharString>
        <CharString name="quotesingle">
          -316 499 -21 257 -20 hstem
          25 -21 callsubr
          endchar
        </CharString>
        <CharString name="r">
          -44 21 -21 406 77 -51 51 -23 23 5 -20 hstemhm
          129 70 hintmask 10001100
          348 488 rmoveto
          -82 -53 -58 -94 -14 hvcurveto
          hintmask 10010100
          147 vlineto
          -84 -85 -16 callgsubr
          90 7 -14 -19 callsubr
          -58 vlineto
          -169 -6 -12 -78 -92 callgsubr
          243 -91 callgsubr
          -79 -6 12 169 hvcurveto
          hintmask 10100100
          120 33 119 55 vhcurveto
          hintmask 11000100
          46 7 -26 31 hhcurveto
          19 21 14 27 hvcurveto
          hintmask 10001100
          27 -33 14 -30 vhcurveto
          endchar
        </CharString>
        <CharString name="radical">
          45 18 -21 738 -20 hstem
          230 -3 rmoveto
          64 hlineto
          146 536 rlineto
          182 50 0 8 106 -6 callgsubr
          -131 hlineto
          -184 -677 -117 304 -136 -50 6 -11 rlineto
          4 11 9 1 9 hhcurveto
          35 21 -30 -61 24 hvcurveto
          endchar
        </CharString>
        <CharString name="registered">
          360 -10 37 641 37 hstem
          50 37 223 57 123 64 176 35 vstem
          408 705 rmoveto
          -197 -161 -160 -198 -197 161 -160 197 198 24 callgsubr
          -198 hvcurveto
          -678 vmoveto
          -177 24 callsubr
          177 178 26 callgsubr
          -178 hvcurveto
          219 116 rmoveto
          -72 2 -21 138 -70 59 rrcurveto
          48 13 42 40 57 vvcurveto
          91 -86 17 -71 vhcurveto
          -145 hlineto
          1 -10 rlineto
          53 4 -12 -106 hvcurveto
          -168 vlineto
          -106 -4 39 callgsubr
          175 51 callgsubr
          -53 -6 15 106 hvcurveto
          73 vlineto
          -17 103 19 -187 70 hhcurveto
          70 hlineto
          -262 410 rmoveto
          30 hlineto
          58 35 -30 -62 -71 -45 -27 -49 hvcurveto
          -29 hlineto
          endchar
        </CharString>
        <CharString name="ring">
          -87 544 25 callgsubr
          742 -43 callsubr
        </CharString>
        <CharString name="ring.case">
          -87 694 25 callgsubr
          892 -43 callsubr
        </CharString>
        <CharString name="s">
          -44 -10 29 437 27 37 callgsubr
          hintmask 11100100
          190 19 rmoveto
          hintmask 11010100
          -56 -62 36 94 hvcurveto
          -12 2 rlineto
          -5 -34 -5 -41 -43 vvcurveto
          -30 39 58 -13 50 hhcurveto
          90 82 44 90 hvcurveto
          159 -247 -32 119 vvcurveto
          59 42 27 47 vhcurveto
          hintmask 11101000
          56 51 -32 -94 hvcurveto
          12 -3 rlineto
          5 34 7 51 43 vvcurveto
          16 -28 -60 12 -48 hhcurveto
          -76 -78 -45 -82 hvcurveto
          -165 247 41 -130 vvcurveto
          -52 -44 -31 -65 vhcurveto
          endchar
        </CharString>
        <CharString name="scaron">
          -44 -10 29 437 27 -27 118 151 -20 37 callgsubr
          hintmask 11010110
          190 19 rmoveto
          65 44 31 52 hvcurveto
          130 -247 -41 165 vvcurveto
          82 78 45 76 48 60 -12 -16 28 vhcurveto
          -43 -7 -51 -5 -34 vhcurveto
          hintmask 10110101
          -12 3 rlineto
          94 -51 32 -56 -47 -42 -27 -59 vhcurveto
          -119 247 32 -159 vvcurveto
          -90 -82 -44 -90 -50 -58 13 30 -39 vhcurveto
          43 5 41 5 34 vhcurveto
          hintmask 10111010
          12 -2 rlineto
          -94 62 -36 56 vhcurveto
          -98 706 -79 callgsubr
        </CharString>
        <CharString name="section">
          -285 27 941 26 hstem
          87 62 257 62 vstem
          263 -258 rmoveto
          -85 -9 103 -47 hhcurveto
          -20 -17 -16 -19 -51 78 -44 99 102 104 50 122 84 -54 49 -63 39 hvcurveto
          65 22 52 51 86 205 -319 -3 156 vvcurveto
          65 48 42 72 vhcurveto
          20 callsubr
          -101 -80 -61 -91 -89 63 -51 71 -44 hvcurveto
          -78 -16 -56 -55 -76 -198 319 -13 -151 vvcurveto
          -94 -68 -28 -75 vhcurveto
          143 453 rmoveto
          -70 -38 -34 -50 -12 vhcurveto
          -83 43 -86 42 81 vvcurveto
          61 43 41 66 4 vhcurveto
          75 -43 73 -41 -72 vvcurveto
          endchar
        </CharString>
        <CharString name="semicolon">
          -282 -123 -21 501 106 hstem
          105 46 vstem
          56 -144 -99 callgsubr
          45 588 rmoveto
          -78 callsubr
        </CharString>
        <CharString name="seven">
          11 -21 613 40 hstemhm
          197 82 -82 94 hintmask 11010000
          279 136 rmoveto
          119 84 199 148 176 vhcurveto
          13 -411 -145 vlineto
          12 -1 rlineto
          87 83 19 261 vhcurveto
          -138 -165 -121 -260 -131 vvcurveto
          -39 24 -18 23 24 23 17 29 vhcurveto
          hintmask 11100000
          26 -12 41 33 vvcurveto
          endchar
        </CharString>
        <CharString name="seveninferior">
          -65 -185 -21 364 32 hstem
          82 23 35 64 vstem
          204 -115 rmoveto
          69 50 118 88 105 vhcurveto
          13 -260 -95 23 vlineto
          49 49 13 136 1 vhcurveto
          -82 -99 -68 -149 -78 vvcurveto
          -26 19 -12 16 19 18 11 21 vhcurveto
          21 -8 10 28 vvcurveto
          endchar
        </CharString>
        <CharString name="six">
          -10 29 326 33 249 26 hstem
          62 72 281 77 vstem
          295 653 rmoveto
          -149 -84 -138 -211 -224 105 -90 116 113 96 81 124 101 -52 82 -135 -45 -43 -9 -13 -34 hvcurveto
          9 -29 rlineto
          12 35 33 6 29 hhcurveto
          75 51 -44 -107 -103 -40 -72 -92 -74 -75 74 198 215 68 121 94 hvcurveto
          20 callsubr
          hvcurveto
          endchar
        </CharString>
        <CharString name="sixinferior">
          -65 -206 25 186 30 137 23 hstemhm
          60 58 157 61 vstemhm
          212 195 rmoveto
          -93 -59 -84 -127 hvcurveto
          hintmask 11111000
          -136 66 -54 73 71 66 50 76 80 -53 35 -64 -27 -28 -6 -11 -27 vhcurveto
          7 -27 rlineto
          9 20 28 5 16 hhcurveto
          39 28 -25 -61 -59 -27 -41 -49 -41 -40 43 115 125 42 70 53 hvcurveto
          47 -5 -63 39 hhcurveto
          17 15 12 14 35 -52 25 -62 hvcurveto
          endchar
        </CharString>
        <CharString name="slash">
          44 callsubr
          15 -85 rmoveto
          61 hlineto
          212 755 rlineto
          -61 hlineto
          endchar
        </CharString>
        <CharString name="space">
          -205 endchar
        </CharString>
        <CharString name="sterling">
          -10 23 -23 64 -38 -21 85 32 187 38 290 26 hstemhm
          59 25 65 80 -60 60 hintmask 0101111010000000
          79 299 rmoveto
          77 hlineto
          6 -55 7 -49 -48 vvcurveto
          -14 -1 -14 -1 -14 vhcurveto
          4 -13 -14 3 -12 hhcurveto
          -39 -30 -23 -42 -29 20 -28 43 41 29 24 36 13 hvcurveto
          hintmask 0011111100000000
          -26 53 65 -29 49 hhcurveto
          89 76 93 0 hvcurveto
          -10 15 rlineto
          hintmask 0101111100000000
          -27 -39 -55 -22 -54 hhcurveto
          -53 -62 19 16 -46 hvcurveto
          8 44 3 44 42 vvcurveto
          27 -2 26 -1 27 vhcurveto
          163 38 -166 hlineto
          -2 30 -1 31 31 vvcurveto
          109 40 89 82 vhcurveto
          100 -50 -123 64 hhcurveto
          22 12 15 21 51 -51 62 -99 -158 -33 -137 -87 -33 1 -30 3 -29 hvcurveto
          -74 hlineto
          hintmask 1001111100000000
          36 -324 rmoveto
          -17 -14 13 19 15 9 20 28 9 17 -4 -7 16 hvcurveto
          -33 -5 -17 -23 -26 hhcurveto
          endchar
        </CharString>
        <CharString name="summation">
          145 -157 23 754 23 hstem
          327 235 rmoveto
          -270 -380 rlineto
          -12 470 145 vlineto
          -12 -2 rlineto
          -87 -145 -33 -264 vhcurveto
          289 407 -234 347 rlineto
          265 62 -33 -87 hvcurveto
          12 -2 rlineto
          145 -435 -21 vlineto
          endchar
        </CharString>
        <CharString name="t">
          -136 -10 34 427 22 123 -20 hstem
          106 70 vstem
          176 596 rmoveto
          -22 -2 rlineto
          -65 -12 -16 -56 -80 hhcurveto
          -22 60 -385 vlineto
          -59 25 -17 44 45 41 20 24 38 vhcurveto
          -2 11 rlineto
          -14 -33 -25 -7 -27 hhcurveto
          -21 -15 17 29 hvcurveto
          381 123 22 -123 vlineto
          endchar
        </CharString>
        <CharString name="thin-slash">
          -73 -89 -21 919 -20 hstem
          352 809 rmoveto
          -50 hlineto
          -272 -919 rlineto
          49 hlineto
          endchar
        </CharString>
        <CharString name="thorn">
          38 callgsubr
          229 23 0 callsubr
          383 12 callsubr
          -674 -72 callgsubr
        </CharString>
        <CharString name="three">
          -10 37 600 26 hstemhm
          368 74 -46 74 hintmask 11100000
          287 351 rmoveto
          72 20 83 54 88 vvcurveto
          109 -86 31 -89 -105 -82 -44 -51 -19 15 -16 21 vhcurveto
          49 10 104 91 hhcurveto
          hintmask 11010000
          69 33 -49 -64 -116 -123 -46 -88 hvcurveto
          -19 vlineto
          90 149 -15 -143 -18 callgsubr
          69 -48 82 -135 7 hvcurveto
          endchar
        </CharString>
        <CharString name="threeinferior">
          -65 -206 30 195 -21 111 40 callgsubr
          hintmask 11101000
          hintmask 11011000
          301 108 -20 callgsubr
          hintmask 11100100
          9 callgsubr
          hintmask 11101000
          -20 callsubr
        </CharString>
        <CharString name="threequarters">
          50 callgsubr
          109 -94 68 0 26 141 30 193 92 63 23 32 -20 hstemhm
          240 60 -43 43 367 57 hintmask 1100111101100000
          266 -41 callgsubr
          -268 -119 rmoveto
          -50 -43 -31 -42 -14 vhcurveto
          74 -9 28 -49 -39 vvcurveto
          -72 -70 -50 -71 -39 -48 13 38 -30 vhcurveto
          21 18 rlineto
          -28 25 37 -11 26 hhcurveto
          47 42 31 53 81 -89 9 -53 hvcurveto
          19 vlineto
          52 73 26 65 37 -16 27 -36 hvcurveto
          -51 1 -63 -39 hhcurveto
          -18 -13 12 14 35 54 25 66 57 55 -19 -68 hvcurveto
          367 -261 -13 callgsubr
          hintmask 1010111110100000
          -1 15 rlineto
          -53 -14 7 61 -2 hvcurveto
          72 hlineto
          hintmask 1100111110100000
          26 -73 283 vlineto
          -30 4 -203 -289 rlineto
          hintmask 1001111110100000
          -24 175 vlineto
          hintmask 1010111110100000
          22 callgsubr
        </CharString>
        <CharString name="threesuperior">
          -65 305 30 285 40 callgsubr
          hintmask 11010000
          hintmask 10110000
          301 619 -20 callgsubr
          hintmask 11001000
          9 callgsubr
          hintmask 11010000
          -20 callsubr
        </CharString>
        <CharString name="tilde">
          -44 586 14 callgsubr
          698 -45 callgsubr
        </CharString>
        <CharString name="tilde.case">
          -44 746 14 callgsubr
          858 -45 callgsubr
        </CharString>
        <CharString name="trademark">
          537 289 -21 403 29 hstem
          180 59 237 23 315 58 vstem
          46 8 callsubr
          -111 vlineto
          11 1 rlineto
          58 43 22 80 1 vhcurveto
          -267 vlineto
          -106 -2 -15 -66 vhcurveto
          -1 -10 rlineto
          198 51 callgsubr
          -64 -5 15 106 hvcurveto
          267 vlineto
          82 -1 43 -22 -58 vvcurveto
          9 -1 rlineto
          111 vlineto
          499 -131 rmoveto
          106 5 15 53 vhcurveto
          1 10 rlineto
          -107 hlineto
          -148 -343 -181 343 rlineto
          -82 hlineto
          1 -10 rlineto
          53 9 -15 -106 hvcurveto
          -164 vlineto
          -107 -9 39 callgsubr
          151 51 callgsubr
          -53 -11 15 107 hvcurveto
          163 vlineto
          161 -300 154 352 rlineto
          -216 vlineto
          -106 -3 39 callgsubr
          174 51 callgsubr
          -53 -5 15 106 hvcurveto
          endchar
        </CharString>
        <CharString name="two">
          0 40 587 26 hstem
          385 74 vstem
          139 40 rmoveto
          179 179 141 147 131 vvcurveto
          119 -96 37 -89 -105 -82 -46 -49 -18 14 -15 20 vhcurveto
          47 5 102 100 hhcurveto
          75 37 -54 -72 -119 -126 -186 -185 -183 hvcurveto
          -13 401 143 -12 vlineto
          -87 -131 -16 -193 vhcurveto
          endchar
        </CharString>
        <CharString name="twoinferior">
          -65 -200 13 callsubr
          99 -57 callgsubr
        </CharString>
        <CharString name="twosuperior">
          -65 311 13 callsubr
          610 -57 callgsubr
        </CharString>
        <CharString name="u">
          -22 callgsubr
          -19 callgsubr
          hintmask 10011100
          -94 callgsubr
          hintmask 00111100
          15 callgsubr
          hintmask 01011100
          -12 callgsubr
          3 callsubr
          endchar
        </CharString>
        <CharString name="uacute">
          -84 callgsubr
          -57 464 -94 callsubr
        </CharString>
        <CharString name="ucircumflex">
          164 -10 31 -5 -21 466 22 240 -20 -19 callgsubr
          hintmask 01111100
          -94 callgsubr
          15 callgsubr
          -12 callgsubr
          hintmask 10111100
          3 callsubr
          -134 384 -102 callsubr
        </CharString>
        <CharString name="udieresis">
          -22 callgsubr
          106 108 -97 callgsubr
          -301 378 -107 callgsubr
        </CharString>
        <CharString name="ugrave">
          -84 callgsubr
          -227 464 -89 callgsubr
        </CharString>
        <CharString name="underscore">
          27 -98 35 hstem
          25 -98 rmoveto
          432 35 -432 hlineto
          endchar
        </CharString>
        <CharString name="v">
          45 18 -21 476 -20 hstem
          314 461 rmoveto
          -50 callsubr
          130 -332 -10 callgsubr
        </CharString>
        <CharString name="w">
          345 18 -21 476 -20 hstem
          614 461 rmoveto
          -14 callsubr
          -67 194 rlineto
          -25 71 -22 57 -17 callsubr
          -231 -63 callgsubr
          51 22 -41 -25 9 hvcurveto
          -103 -337 -62 callsubr
          130 -332 rlineto
          59 hlineto
          110 361 131 -361 -10 callgsubr
        </CharString>
        <CharString name="x">
          43 21 -21 473 -20 hstem
          232 325 rmoveto
          -27 47 -34 57 10 vvcurveto
          18 14 4 35 vhcurveto
          -6 callsubr
          -216 -63 callgsubr
          49 25 -23 -118 72 hvcurveto
          62 -103 -30 -42 rlineto
          -135 -97 -8 -28 -79 -2 callsubr
          185 -91 callgsubr
          -36 -11 9 17 21 32 54 36 49 hvcurveto
          24 34 36 -58 rlineto
          30 -49 21 -34 -22 vvcurveto
          -18 -14 -3 -37 -92 callgsubr
          236 -91 callgsubr
          -55 -29 14 117 -70 hvcurveto
          -65 107 35 48 rlineto
          135 97 3 28 79 -6 callgsubr
          -184 -63 callgsubr
          36 15 -9 -17 -21 -32 -54 -36 -49 hvcurveto
          -29 -41 rlineto
          endchar
        </CharString>
        <CharString name="y">
          45 -284 74 -74 87 670 -20 hstemhm
          hintmask 10100000
          hintmask 01100000
          97 -210 rmoveto
          -24 -9 13 -29 hhcurveto
          -16 -23 -14 -29 -29 31 -15 36 85 82 101 180 59 hvcurveto
          4 callsubr
          2 -12 rlineto
          -50 callsubr
          hintmask 10100000
          149 -376 rlineto
          -108 -44 -38 -55 -70 hhcurveto
          endchar
        </CharString>
        <CharString name="yacute">
          45 -284 74 683 -20 276 -20 -79 callsubr
          253 939 -94 callsubr
        </CharString>
        <CharString name="ydieresis">
          45 -284 74 683 -20 136 108 -79 callsubr
          -5 853 -107 callgsubr
        </CharString>
        <CharString name="yen">
          21 -21 229 38 102 38 236 -20 hstem
          245 70 vstem
          85 369 rmoveto
          107 hlineto
          53 -102 rlineto
          -160 -38 160 -23 hlineto
          -194 -6 0 -57 callsubr
          0 194 hvcurveto
          23 160 38 -160 vlineto
          40 102 rlineto
          120 38 -105 hlineto
          196 81 22 28 69 -6 callgsubr
          -204 -63 callgsubr
          46 18 -3 -31 -22 -25 -71 -39 -103 hvcurveto
          -40 -106 -53 106 rlineto
          -55 111 -35 67 -17 callgsubr
          -229 -63 callgsubr
          51 25 -29 -195 103 hvcurveto
          -88 hlineto
          endchar
        </CharString>
        <CharString name="z">
          1 0 22 429 22 hstem
          128 22 rmoveto
          288 440 rlineto
          11 -356 vlineto
          -43 7 -51 5 -34 vhcurveto
          12 3 rlineto
          87 32 16 114 vhcurveto
          91 hlineto
          -281 -437 rlineto
          -14 361 vlineto
          43 -7 51 -5 34 vhcurveto
          -12 -3 rlineto
          -87 -32 -16 -114 vhcurveto
          endchar
        </CharString>
        <CharString name="zcaron">
          1 0 22 429 22 -22 108 151 -20 hstemhm
          hintmask 11010000
          231 22 rmoveto
          114 32 16 87 hvcurveto
          12 3 rlineto
          5 -34 7 -51 -43 vvcurveto
          -361 14 hlineto
          281 437 rlineto
          -91 hlineto
          -114 -32 -16 -87 hvcurveto
          -12 -3 rlineto
          -5 34 -7 51 43 vvcurveto
          356 -11 hlineto
          -288 -440 rlineto
          -8 688 rmoveto
          -20 -22 80 -91 rlineto
          hintmask 10110000
          -77 callgsubr
        </CharString>
        <CharString name="zero">
          -10 29 608 26 hstem
          46 72 314 72 vstem
          277 653 rmoveto
          -132 -99 -121 -212 -214 99 -116 132 130 97 116 214 212 -97 121 -130 hvcurveto
          -634 vmoveto
          -89 -70 119 182 180 69 127 90 88 67 -127 -180 -182 -67 -119 -88 hvcurveto
          endchar
        </CharString>
        <CharString name="zeroinferior">
          -65 -206 25 353 23 hstem
          51 29 callgsubr
          vstem
          195 195 -49 callgsubr
        </CharString>
      <CharString index="0">
        rmoveto
        -106 callgsubr
        207 hmoveto
        -106 callgsubr
        endchar
      </CharString>
      <CharString index="1">
        -29 25 -25 29 -101 callgsubr
        vhcurveto
        return
      </CharString>
      <CharString index="2">
        hstem
        130 70 437 25 vstem
        773 8 callsubr
        -246 -39 callsubr
        18 -20 -19 callsubr
        -198 vlineto
        -187 -109 -69 -114 -122 -92 63 180 vhcurveto
        212 vlineto
        194 7 20 90 -60 callgsubr
        90 8 19 callsubr
        -207 vlineto
        -165 72 -112 199 112 149 54 233 vhcurveto
        196 vlineto
        195 19 20 90 vhcurveto
        return
      </CharString>
      <CharString index="3">
        -44 callsubr
        53 15 -9 -31 -26 -8 -32 -39 -113 hvcurveto
        -89 -257 rlineto
        -194 -67 -25 -15 -70 -2 callsubr
        225 -91 callgsubr
        -51 -25 3 39 31 15 51 28 83 hvcurveto
        305 hlineto
        34 -93 19 -52 -30 vvcurveto
        return
      </CharString>
      <CharString index="4">
        -87 -117 -33 -165 vhcurveto
        -36 16 -5 33 139 vvcurveto
        129 vlineto
        189 15 -19 -89 hvcurveto
        11 -2 42 callsubr
        vlineto
        36 callgsubr
        -88 -15 -21 -189 vhcurveto
        315 vlineto
        182 104 -26 -93 hvcurveto
        12 -2 rlineto
        144 return
      </CharString>
      <CharString index="5">
        hstem
        40 76 251 77 vstem
        444 -48 callsubr
        -132 -77 -25 callgsubr
        -163 106 -83 112 -2 callgsubr
        vhcurveto
        -71 callsubr
        134 210 -76 callgsubr
        return
      </CharString>
      <CharString index="6">
        29 25 25 29 29 -25 25 -29 -29 -25 -25 -29 return
      </CharString>
      <CharString index="7">
        -52 callgsubr
        -47 callgsubr
        vhcurveto
        -91 callsubr
        return
      </CharString>
      <CharString index="8">
        rmoveto
        64 41 31 61 55 vvcurveto
        60 -31 23 -34 -27 -25 -22 -31 -30 22 -18 26 -6 vhcurveto
        16 -4 7 -9 -12 vvcurveto
        -26 -20 -34 -44 -29 vhcurveto
        return
      </CharString>
      <CharString index="9">
        12 callgsubr
        vstem
        220 474 rmoveto
        -99 callsubr
        return
      </CharString>
      <CharString index="10">
        -19 callgsubr
        hintmask 10011110
        -94 callgsubr
        hintmask 00111110
        -65 4 -34 6 -35 -65 callgsubr
        261 vlineto
        -84 -87 -11 0 hvcurveto
        2 -11 rlineto
        3 callsubr
        return
      </CharString>
      <CharString index="11">
        vlineto
        -139 -4 -16 -90 callsubr
        15 138 return
      </CharString>
      <CharString index="12">
        11 callsubr
        vstem
        201 473 rmoveto
        -83 callgsubr
        -19 -93 callsubr
        return
      </CharString>
      <CharString index="13">
        -58 callgsubr
        53 86 vhcurveto
        323 vlineto
        -83 callgsubr
        -19 -195 hvcurveto
        -97 vlineto
        -103 50 -57 103 98 40 75 64 21 vhcurveto
        return
      </CharString>
      <CharString index="14">
        rmoveto
        -11 -10 -4 -9 -14 hvcurveto
        -163 -99 11 -25 183 56 rlineto
        36 11 7 19 16 vvcurveto
        23 -19 12 -20 vhcurveto
        endchar
      </CharString>
      <CharString index="15">
        vhcurveto
        -2 -12 rlineto
        return
      </CharString>
      <CharString index="16">
        hlineto
        -73 callsubr
        return
      </CharString>
      <CharString index="17">
        -96 callgsubr
        89 30 198 117 73 22 36 callsubr
        -82 vhcurveto
        -2 -12 42 callsubr
        -49 callsubr
        -103 -98 -50 -95 -84 -11 vhcurveto
        return
      </CharString>
      <CharString index="18">
        rmoveto
        -21 -14 -16 -19 -15 5 -16 30 -16 hvcurveto
        162 -83 15 23 -134 122 rlineto
        15 -17 -11 5 -15 hhcurveto
        endchar
      </CharString>
      <CharString index="19">
        -50 callgsubr
        42 callgsubr
        -100 callsubr
        return
      </CharString>
      <CharString index="20">
        -7 -14 -14 -7 -17 hhcurveto
        -37 -4 38 142 hvcurveto
        return
      </CharString>
      <CharString index="21">
        6 -473 -74 callgsubr
        -125 -46 -101 -102 hvcurveto
        return
      </CharString>
      <CharString index="22">
        -2 -12 rlineto
        250 -91 callgsubr
        -71 -11 15 194 -71 hvcurveto
        -177 479 rlineto
        return
      </CharString>
      <CharString index="23">
        -22 callgsubr
        42 callgsubr
        -97 callgsubr
        return
      </CharString>
      <CharString index="24">
        -85 callsubr
        92 7 return
      </CharString>
      <CharString index="25">
        29 callgsubr
        vstem
        322 -41 callgsubr
        -360 -32 -98 callsubr
        471 120 -98 callsubr
        return
      </CharString>
      <CharString index="26">
        -21 -80 callgsubr
        return
      </CharString>
      <CharString index="27">
        -33 callsubr
        -248 43 callsubr
        return
      </CharString>
      <CharString index="28">
        rmoveto
        -20 -22 80 -91 rlineto
        -77 callgsubr
      </CharString>
      <CharString index="29">
        -66 callgsubr
        92 7 -15 callgsubr
        return
      </CharString>
      <CharString index="30">
        -30 27 11 -8 20 hhcurveto
        20 11 8 30 27 hvcurveto
        80 91 -20 22 -118 -77 rlineto
        endchar
      </CharString>
      <CharString index="31">
        rmoveto
        80 33 -72 -109 4 hvcurveto
        52 callgsubr
        103 9 42 78 81 hhcurveto
        return
      </CharString>
      <CharString index="32">
        39 -30 callgsubr
        42 callgsubr
        -102 callgsubr
        return
      </CharString>
      <CharString index="33">
        -54 callsubr
        101 101 101 52 -101 -126 return
      </CharString>
      <CharString index="34">
        0 hvcurveto
        -66 callgsubr
        return
      </CharString>
      <CharString index="35">
        vlineto
        -145 -5 -16 -78 -92 callgsubr
        242 -91 callgsubr
        -80 -5 16 145 hvcurveto
        118 vlineto
        -18 29 34 -9 51 hhcurveto
        131 95 106 139 116 -49 132 -137 hvcurveto
        -53 -464 rmoveto
        -42 -40 20 33 -19 hvcurveto
        156 vlineto
        55 30 169 108 106 20 -134 -83 -103 -35 -113 -128 vhcurveto
        endchar
      </CharString>
      <CharString index="36">
        -20 -90 -92 callgsubr
        return
      </CharString>
      <CharString index="37">
        -8 callsubr
        246 -20 -101 callsubr
        return
      </CharString>
      <CharString index="38">
        40 -3 63 52 hhcurveto
        40 18 -30 -40 -71 -75 -109 -109 -109 hvcurveto
        -13 254 93 -23 vlineto
        -49 -69 -11 -103 -1 vhcurveto
        104 103 81 86 78 vvcurveto
        endchar
      </CharString>
      <CharString index="39">
        -99 callgsubr
        -151 -19 -99 callgsubr
        endchar
      </CharString>
      <CharString index="40">
        43 callsubr
        -6 -20 -57 callsubr
        20 194 hvcurveto
        return
      </CharString>
      <CharString index="41">
        2 -11 rlineto
        return
      </CharString>
      <CharString index="42">
        -74 callsubr
        hintmask 01011110
        -87 callgsubr
        return
      </CharString>
      <CharString index="43">
        rmoveto
        -64 -41 -31 -61 -55 vvcurveto
        -60 31 -23 34 27 25 22 31 30 -22 18 -26 6 vhcurveto
        -16 4 -7 9 12 vvcurveto
        26 20 34 44 29 vhcurveto
        return
      </CharString>
      <CharString index="44">
        hlineto
        -36 callgsubr
        return
      </CharString>
      <CharString index="45">
        -135 87 -111 141 142 82 111 return
      </CharString>
      <CharString index="46">
        61 38 45 54 54 -38 45 -61 hvcurveto
        -160 vmoveto
        -55 callsubr
      </CharString>
      <CharString index="47">
        vhcurveto
        -6 callsubr
        -269 -63 callgsubr
        return
      </CharString>
      <CharString index="48">
        -8 callgsubr
        256 -20 -95 callgsubr
        return
      </CharString>
      <CharString index="49">
        433 265 rmoveto
        -91 -36 -153 -111 -73 -22 return
      </CharString>
      <CharString index="50">
        -18 callsubr
        hintmask 10110000
        -69 callgsubr
      </CharString>
      <CharString index="51">
        -37 callsubr
        -64 callsubr
        return
      </CharString>
      <CharString index="52">
        -48 -67 -73 -40 -135 hhcurveto
        -175 -95 141 190 194 86 142 176 127 87 -39 -125 35 hvcurveto
        11 -2 rlineto
        128 vlineto
        21 -39 -111 40 -110 10 callsubr
        return
      </CharString>
      <CharString index="53">
        30 callsubr
        -270 -44 callsubr
        return
      </CharString>
      <CharString index="54">
        -273 -123 18 callgsubr
        105 46 vstem
        56 -144 -99 callgsubr
        endchar
      </CharString>
      <CharString index="55">
        412 323 rmoveto
        110 -70 50 -95 return
      </CharString>
      <CharString index="56">
        6 -25 -74 callsubr
        return
      </CharString>
      <CharString index="57">
        73 -39 callgsubr
        54 callgsubr
        184 22 return
      </CharString>
      <CharString index="58">
        -98 callsubr
        endchar
      </CharString>
      <CharString index="59">
        -15 8 rlineto
        -57 -31 -57 -23 -56 hhcurveto
        return
      </CharString>
      <CharString index="60">
        -85 -82 -34 -57 -22 12 -12 22 return
      </CharString>
      <CharString index="61">
        rmoveto
        -195 -85 -142 -175 return
      </CharString>
      <CharString index="62">
        rmoveto
        hintmask 01010000
        -87 callsubr
        hintmask 10001000
        -33 callgsubr
      </CharString>
      <CharString index="63">
        vlineto
        -146 27 callgsubr
        245 -91 callgsubr
        -80 -5 16 146 hvcurveto
        return
      </CharString>
      <CharString index="64">
        -8 -46 callsubr
        return
      </CharString>
      <CharString index="65">
        46 vstem
        120 729 -64 callgsubr
        return
      </CharString>
      <CharString index="66">
        -40 rmoveto
        -38 callsubr
        return
      </CharString>
      <CharString index="67">
        148 -403 rlineto
        -289 hlineto
        return
      </CharString>
      <CharString index="68">
        -10 31 -31 52 -26 -21 return
      </CharString>
      <CharString index="69">
        512 44 rmoveto
        -28 -23 -4 -46 vhcurveto
        return
      </CharString>
      <CharString index="70">
        -141 -81 -25 callgsubr
        return
      </CharString>
      <CharString index="71">
        2 -12 rlineto
        return
      </CharString>
      <CharString index="72">
        -5 callsubr
        95 -160 rmoveto
        -83 callgsubr
        return
      </CharString>
      <CharString index="73">
        161 -31 callsubr
        return
      </CharString>
      <CharString index="74">
        -61 callsubr
        -40 callsubr
      </CharString>
      <CharString index="75">
        64 16 32 56 94 94 rrcurveto
        31 31 43 3 25 hhcurveto
        30 callsubr
        -213 -44 callsubr
        29 10 -9 -22 -56 -80 -100 -83 -6 hvcurveto
        return
      </CharString>
      <CharString index="76">
        -27 -23 -22 -30 -28 23 -22 27 29 22 22 28 30 -22 22 -29 hvcurveto
        return
      </CharString>
      <CharString index="77">
        -10 29 234 29 181 20 return
      </CharString>
      <CharString index="78">
        200 21 -21 219 24 return
      </CharString>
      <CharString index="79">
        -53 -14 7 61 -2 hvcurveto
        72 26 -73 283 hlineto
        -30 4 -203 -289 rlineto
        -24 175 vlineto
        22 callgsubr
      </CharString>
      <CharString index="80">
        rmoveto
        -99 -23 124 84 87 37 136 129 36 34 -11 -23 29 hvcurveto
        -153 vlineto
        -91 -35 -153 -108 vhcurveto
        endchar
      </CharString>
      <CharString index="81">
        -96 vvcurveto
        -79 54 -46 79 return
      </CharString>
      <CharString index="82">
        -112 -135 return
      </CharString>
      <CharString index="83">
        -20 hstem
        17 callgsubr
        -140 rlineto
        48 vlineto
        -300 116 300 116 rlineto
        48 vlineto
        -354 -140 rlineto
        return
      </CharString>
      <CharString index="84">
        vlineto
        4 22 27 2 29 hhcurveto
        145 199 -63 -264 -267 -201 -60 -144 -14 -14 0 1 -12 hvcurveto
        endchar
      </CharString>
      <CharString index="85">
        164 -39 callgsubr
        466 22 return
      </CharString>
      <CharString index="86">
        hvcurveto
        -92 -22 92 -225 hlineto
        -72 callsubr
        return
      </CharString>
      <CharString index="87">
        rmoveto
        68 -55 19 -57 -66 -54 -25 -35 -14 13 -12 18 vhcurveto
        39 -1 63 51 hhcurveto
        36 16 -27 -37 -65 -73 -26 -52 hvcurveto
        return
      </CharString>
      <CharString index="88">
        hstemhm
        121 29 callsubr
        return
      </CharString>
      <CharString index="89">
        -94 -78 -54 -84 -51 -63 16 44 -38 hvcurveto
        -20 -19 rlineto
        -58 47 74 -20 63 hhcurveto
        114 110 81 118 return
      </CharString>
      <CharString index="90">
        27 vvcurveto
        22 19 3 41 vhcurveto
        -6 callsubr
        return
      </CharString>
      <CharString index="91">
        -12 -73 callgsubr
        return
      </CharString>
      <CharString index="92">
        -19 -19 callsubr
        return
      </CharString>
      <CharString index="93">
        -195 -19 -21 23 callsubr
        -18 21 195 hvcurveto
        362 vlineto
        return
      </CharString>
      <CharString index="94">
        rmoveto
        -194 -136 vlineto
        65 -109 rmoveto
        199 hlineto
        return
      </CharString>
      <CharString index="95">
        -87 callgsubr
        261 -27 callsubr
        return
      </CharString>
      <CharString index="96">
        40 76 300 76 return
      </CharString>
      <CharString index="97">
        rlineto
        59 hlineto
        4 callsubr
        endchar
      </CharString>
      <CharString index="98">
        -16 callsubr
        244 28 hstem
        134 70 return
      </CharString>
      <CharString index="99">
        -138 -16 callsubr
        return
      </CharString>
      <CharString index="100">
        -16 7 callgsubr
        return
      </CharString>
      <CharString index="101">
        hhcurveto
        -6 callsubr
        return
      </CharString>
      <CharString index="102">
        -47 -16 31 -32 hhcurveto
        -21 -23 -14 -29 -29 31 -15 36 149 77 140 176 hvcurveto
        return
      </CharString>
      <CharString index="103">
        111 112 54 132 hvcurveto
        217 -346 -3 175 vvcurveto
        70 52 52 78 return
      </CharString>
      <CharString index="104">
        -20 hstem
        -11 callgsubr
        vstem
        return
      </CharString>
      <CharString index="105">
        71 65 27 74 38 return
      </CharString>
      <CharString index="106">
        36 callgsubr
        -99 -101 -21 -195 vhcurveto
        -160 hlineto
        474 649 rlineto
        28 vlineto
        return
      </CharString>
      <CharString index="107">
        -156 -94 -115 -139 -106 46 -133 137 89 47 59 62 19 hvcurveto
        return
      </CharString>
      <CharString index="108">
        61 39 -45 -55 -54 -39 -45 -61 -60 -39 45 54 55 39 45 60 hvcurveto
        endchar
      </CharString>
      <CharString index="109">
        rmoveto
        -88 callsubr
        return
      </CharString>
      <CharString index="110">
        hstemhm
        50 76 216 70 return
      </CharString>
      <CharString index="111">
        -10 callsubr
        34 callsubr
        return
      </CharString>
      <CharString index="112">
        -57 -30 -56 -23 -55 hhcurveto
        -80 -73 67 162 120 45 95 101 hvcurveto
        return
      </CharString>
      <CharString index="113">
        337 -10 29 681 -20 return
      </CharString>
      <CharString index="114">
        -82 -92 callgsubr
        return
      </CharString>
      <CharString index="115">
        -10 20 callgsubr
        return
      </CharString>
      <CharString index="116">
        -19 vlineto
        53 89 -9 -81 -53 -42 -31 -47 -26 -37 11 28 -25 hvcurveto
        return
      </CharString>
      <CharString index="117">
        rmoveto
        -60 -39 -45 -54 -54 39 -45 60 return
      </CharString>
      <CharString index="118">
        vhcurveto
        30 callsubr
        return
      </CharString>
      <CharString index="119">
        22 callsubr
        70 return
      </CharString>
      <CharString index="120">
        -25 -21 -16 -28 -32 21 -13 25 37 98 23 10 49 hvcurveto
        -36 return
      </CharString>
      <CharString index="121">
        67 -49 -21 45 -26 callsubr
        hintmask 01101000
        332 return
      </CharString>
      <CharString index="122">
        -65 4 -34 6 -35 -74 callsubr
        return
      </CharString>
      <CharString index="123">
        -10 50 97 -23 38 hhcurveto
        25 21 return
      </CharString>
      <CharString index="124">
        98 295 rmoveto
        354 return
      </CharString>
      <CharString index="125">
        -21 18 callsubr
        return
      </CharString>
      <CharString index="126">
        -66 callgsubr
        90 return
      </CharString>
      <CharString index="127">
        23 673 23 return
      </CharString>
      <CharString index="128">
        31 480 hlineto
        194 18 20 91 11 callgsubr
        return
      </CharString>
      <CharString index="129">
        -61 -3 -12 -7 -54 hhcurveto
        endchar
      </CharString>
      <CharString index="130">
        -19 -21 245 48 132 48 250 -20 hstem
        return
      </CharString>
      <CharString index="131">
        159 160 197 198 -159 160 return
      </CharString>
      <CharString index="132">
        38 121 39 hstem
        85 54 89 55 vstem
        184 return
      </CharString>
      <CharString index="133">
        144 -143 -178 -175 -144 -145 return
      </CharString>
      <CharString index="134">
        -4 -7 callgsubr
        return
      </CharString>
      <CharString index="135">
        -21 -33 callsubr
        return
      </CharString>
      <CharString index="136">
        58 170 58 return
      </CharString>
      <CharString index="137">
        483 rmoveto
        return
      </CharString>
      <CharString index="138">
        99 0 20 680 -20 12 callgsubr
        vstem
        return
      </CharString>
      <CharString index="139">
        -125 -102 27 381 26 381 27 hstem
        return
      </CharString>
      <CharString index="140">
        hlineto
        70 250 rlineto
        -51 hlineto
        -70 -250 rlineto
        return
      </CharString>
      <CharString index="141">
        -21 151 -20 hstem
        return
      </CharString>
      <CharString index="142">
        21 -21 452 31 return
      </CharString>
      <CharString index="143">
        -11 -2 rlineto
        return
      </CharString>
      <CharString index="144">
        hstemhm
        52 20 -20 70 177 70 -51 51 return
      </CharString>
      <CharString index="145">
        105 -253 -21 264 29 433 31 return
      </CharString>
      <CharString index="146">
        -15 -53 vhcurveto
        -1 -10 rlineto
        return
      </CharString>
      <CharString index="147">
        86 -23 23 hstemhm
        241 60 -43 60 return
      </CharString>
      <CharString index="148">
        rmoveto
        261 63 -261 hlineto
        endchar
      </CharString>
      <CharString index="149">
        246 -20 return
      </CharString>
      <CharString index="150">
        145 hlineto
        return
      </CharString>
      <CharString index="151">
        -354 hlineto
        return
      </CharString>
      <CharString index="152">
        -208 -93 22 781 22 hstem
        return
      </CharString>
      <CharString index="153">
        -197 -82 -21 845 -20 hstem
        return
      </CharString>
      <CharString index="154">
        -258 34 214 29 -7 -21 return
      </CharString>
      <CharString index="155">
        hintmask 001011100100111000000000
        return
      </CharString>
      <CharString index="156">
        hhcurveto
        22 15 12 22 return
      </CharString>
      <CharString index="157">
        422 -19 -21 40 return
      </CharString>
      <CharString index="158">
        hlineto
        -1 10 rlineto
        return
      </CharString>
      <CharString index="159">
        -249 hlineto
        return
      </CharString>
      <CharString index="160">
        253 rmoveto
        return
      </CharString>
      <CharString index="161">
        259 23 return
      </CharString>
</ttFont>
